<svg width="20" height="24" viewBox="0 0 20 24" fill="none" xmlns="http://www.w3.org/2000/svg">
<path fill-rule="evenodd" clip-rule="evenodd" d="M12 3.66443e-07C12.1841 -0.000142855 12.366 0.0416979 12.5313 0.123047C12.6964 0.204393 12.841 0.322721 12.9531 0.46875C13.0653 0.614816 13.1418 0.785208 13.1777 0.965821C13.2137 1.14641 13.2078 1.33289 13.1602 1.51074L11.96 6H12C12.2649 5.99936 12.5225 6.08652 12.7324 6.24805C12.9424 6.40969 13.0931 6.63724 13.1602 6.89356C13.2271 7.14956 13.2071 7.42057 13.1035 7.66406C12.9997 7.90784 12.8172 8.11097 12.5859 8.24023C15.3767 9.79539 19.2 13.0726 19.2002 17.5996C19.2008 18.5757 18.9779 19.5394 18.5488 20.416C18.1196 21.2927 17.495 22.06 16.7236 22.6582C15.9522 23.2564 15.0537 23.6707 14.0977 23.8682C13.1417 24.0656 12.1532 24.0414 11.208 23.7979C10.1531 24.0667 9.04707 24.0667 7.99219 23.7979C7.04699 24.0414 6.05846 24.0655 5.10254 23.8682C4.14646 23.6707 3.24805 23.2564 2.47656 22.6582C1.70514 22.06 1.08063 21.2928 0.651368 20.416C0.222227 19.5393 -0.000613629 18.5757 1.26909e-06 17.5996C0.000206746 13.0728 3.82259 9.79547 6.61328 8.24023C6.38691 8.11389 6.20814 7.91688 6.10352 7.67969C5.99893 7.44237 5.97469 7.17723 6.03418 6.92481C6.09374 6.67232 6.23391 6.44588 6.4336 6.28027C6.63326 6.11473 6.88153 6.01866 7.14063 6.00684L6.06055 2.7793C5.99967 2.59934 5.98297 2.40752 6.01172 2.21973C6.04054 2.03177 6.11346 1.85279 6.22559 1.69922C6.33695 1.54498 6.48405 1.41984 6.65332 1.33301C6.82257 1.24623 7.01 1.20065 7.2002 1.2002H9.2002C9.2002 0.881936 9.32672 0.576606 9.55176 0.351563C9.77679 0.126584 10.0822 3.66443e-07 10.4004 3.66443e-07H12ZM8.08203 8.40039C5.5196 9.51575 0.800046 12.8209 0.799806 17.5996C0.80097 19.0845 1.39168 20.5084 2.44141 21.5586C3.49113 22.6087 4.91458 23.1994 6.39942 23.2012C6.4321 23.2012 6.46439 23.1982 6.49707 23.1982C6.4664 23.1811 6.43457 23.1659 6.4043 23.1484C6.3588 23.1222 6.31814 23.0875 6.28613 23.0459C6.25411 23.0042 6.23141 22.956 6.21777 22.9053C6.20414 22.8545 6.2002 22.8011 6.20703 22.749C6.2139 22.6971 6.2307 22.6469 6.25684 22.6016C6.2831 22.556 6.31866 22.5164 6.36035 22.4844C6.40199 22.4524 6.4493 22.4287 6.5 22.415C6.55078 22.4014 6.60413 22.3975 6.65625 22.4043C6.7083 22.4111 6.75823 22.4289 6.80371 22.4551C7.21205 22.6889 7.64788 22.8717 8.10059 23C9.08265 23.2674 10.1185 23.2674 11.1006 23C11.5528 22.8711 11.9878 22.6873 12.3955 22.4531C12.4874 22.4002 12.5968 22.3856 12.6992 22.4131C12.8017 22.4406 12.8894 22.5077 12.9424 22.5996C12.9954 22.6915 13.0089 22.8009 12.9814 22.9033C12.9539 23.0059 12.8869 23.0934 12.7949 23.1465C12.7647 23.164 12.7328 23.1792 12.7021 23.1963C12.7348 23.1967 12.7671 23.2002 12.7998 23.2002C14.2845 23.1986 15.708 22.6075 16.7578 21.5576C17.8076 20.5078 18.3988 19.0843 18.4004 17.5996C18.4002 12.8206 13.6795 9.51556 11.1172 8.40039H8.08203ZM7.51367 12.791C8.4065 12.7911 8.79882 13.3555 8.79883 14.1729V14.835H9.37793V15.457H8.79883L8.78125 18.0264C8.78125 18.5421 9.09535 18.7851 9.58594 18.7852C10.6556 18.7852 11.2939 17.7828 11.2939 16.5859C11.2938 16.1318 11.1041 15.8166 10.7031 15.7666L10.5869 15.0879C11.4211 15.0879 12 15.6624 12 16.5771C11.9998 18.0464 11.1756 19.4473 9.58594 19.4473C8.65375 19.4472 8.06543 18.9313 8.06543 18.0264L8.08301 15.457H7.21875V14.835H8.08301V14.2021C8.08301 13.6961 7.91572 13.4531 7.37598 13.4531H7.21875V12.8008C7.31689 12.791 7.42535 12.791 7.51367 12.791ZM7.81934 9.40527C7.91407 9.35756 8.02426 9.34961 8.125 9.38281C8.22578 9.41608 8.30968 9.48822 8.35742 9.58301C8.40493 9.6776 8.41297 9.78715 8.37988 9.8877C8.34661 9.98848 8.27448 10.0724 8.17969 10.1201C6.41179 11.0113 4.1338 12.7542 3.04297 14.9756C3.01003 15.0428 2.95904 15.1 2.89551 15.1396C2.83186 15.1793 2.75759 15.2003 2.68262 15.2002C2.62206 15.2005 2.56227 15.1866 2.50781 15.1602C2.46051 15.1371 2.41766 15.1049 2.38281 15.0654C2.34798 15.0259 2.32071 14.9796 2.30371 14.9297C2.28672 14.8797 2.27968 14.8261 2.2832 14.7734C2.28676 14.7209 2.30076 14.6692 2.32422 14.6221C3.80762 11.6022 6.90484 9.86597 7.81934 9.40527ZM7.2002 6.79981C7.09411 6.79981 6.99201 6.84198 6.91699 6.91699C6.84198 6.99201 6.79981 7.09411 6.79981 7.2002C6.79986 7.30607 6.84221 7.40748 6.91699 7.48242C6.99201 7.55744 7.09411 7.59961 7.2002 7.59961H12C12.1061 7.59961 12.2082 7.55743 12.2832 7.48242C12.3579 7.40749 12.4003 7.30602 12.4004 7.2002C12.4004 7.09416 12.3581 6.992 12.2832 6.91699C12.2082 6.84198 12.1061 6.79981 12 6.79981H7.2002ZM10.4004 0.799805C10.2944 0.799805 10.1922 0.842043 10.1172 0.916993C10.0422 0.992007 10 1.09411 10 1.2002V3.2002C9.99995 3.30612 9.95766 3.40747 9.88281 3.48242C9.8078 3.55744 9.7057 3.59961 9.59961 3.59961C9.49366 3.59951 9.39231 3.55735 9.31738 3.48242C9.24247 3.40746 9.20025 3.30617 9.2002 3.2002V2H7.2002C7.13674 1.99981 7.07402 2.01495 7.01758 2.04395C6.96107 2.07303 6.91178 2.11516 6.875 2.16699C6.83778 2.21787 6.81325 2.27753 6.80371 2.33984C6.79426 2.40204 6.80006 2.46583 6.82031 2.52539L7.98047 6H11.1328L12.3857 1.30469C12.4017 1.2455 12.4034 1.18321 12.3916 1.12305C12.3798 1.06284 12.3546 1.00579 12.3174 0.957032C12.2801 0.908264 12.2318 0.869034 12.1768 0.841797C12.1218 0.814572 12.0614 0.799889 12 0.799805H10.4004Z" fill="black"/>
</svg>
