<svg width="502" height="410" viewBox="0 0 502 410" fill="none" xmlns="http://www.w3.org/2000/svg">
<path d="M222.417 5.75765C240.318 -1.91332 260.836 -1.91989 278.715 5.74202L482.079 92.9002C493.851 97.9452 501.164 109.036 501.163 121.843C501.163 134.655 493.845 145.753 482.066 150.801L402.042 185.097C402.067 185.343 402.08 185.595 402.08 185.848V243.111C402.08 267.01 385.715 289.119 356.001 305.367C327.719 320.831 290.279 329.348 250.58 329.348C210.881 329.348 173.441 320.831 145.159 305.367C115.444 289.119 99.0801 267.01 99.0801 243.111V185.848C99.0801 185.595 99.0932 185.343 99.1182 185.096L58.0801 167.508V275.583C67.3701 278.722 74.0801 287.514 74.0801 297.849C74.08 303.842 71.8221 309.316 68.1172 313.471C72.215 317.489 74.9371 322.934 75.498 329.104L81.2559 392.446C81.6489 396.772 80.1946 401.094 77.2646 404.302C74.3357 407.509 70.164 409.349 65.8203 409.349H35.3408C30.9971 409.349 26.8254 407.509 23.8965 404.302C20.9675 401.094 19.5123 396.773 19.9053 392.446L25.6631 329.104C26.2251 322.933 28.9461 317.488 33.0439 313.471C29.339 309.315 27.0811 303.841 27.0811 297.849C27.0811 287.513 33.7911 278.721 43.0811 275.583V161.849C43.0811 161.596 43.0942 161.343 43.1191 161.096L19.085 150.794C7.31312 145.749 6.3895e-05 134.659 0 121.852C0 109.038 7.31787 97.9424 19.0967 92.8953L222.417 5.75765ZM50.5811 321.349C45.3642 321.349 41.0738 325.267 40.6006 330.462L34.8428 393.805C34.8377 393.865 34.823 394.024 34.9717 394.186C35.1195 394.349 35.2797 394.349 35.3408 394.349H65.8203C65.8806 394.349 66.0417 394.349 66.1895 394.186C66.338 394.024 66.3244 393.865 66.3184 393.804L60.5596 330.462C60.0863 325.267 55.7969 321.349 50.5811 321.349ZM114.081 211.112C114.081 229.276 127.674 246.711 152.356 260.207C178.47 274.486 213.353 282.349 250.581 282.349C261.072 282.349 271.528 281.712 281.658 280.455C285.774 279.944 289.514 282.865 290.024 286.975C290.534 291.086 287.615 294.832 283.504 295.342C272.764 296.674 261.687 297.349 250.581 297.349C210.882 297.349 173.442 288.832 145.16 273.368C132.496 266.443 122.267 258.451 114.686 249.712C117.562 265.465 130.682 280.355 152.357 292.207C178.471 306.486 213.354 314.349 250.582 314.349C287.81 314.349 322.693 306.486 348.807 292.207C370.561 280.312 383.694 265.357 386.506 249.541C377.688 259.775 365.32 268.979 349.883 276.534C348.821 277.054 347.698 277.301 346.591 277.301C343.817 277.301 341.15 275.755 339.849 273.096C338.028 269.376 339.567 264.883 343.288 263.062C371.119 249.441 387.081 230.506 387.081 211.112V191.511L278.747 237.939C269.792 241.777 260.18 243.696 250.572 243.696C240.975 243.696 231.383 241.782 222.449 237.953L114.081 191.509V211.112ZM50.5811 289.349C45.8941 289.349 42.0811 293.162 42.0811 297.849C42.0812 302.536 45.8941 306.349 50.5811 306.349C55.2679 306.349 59.0809 302.536 59.0811 297.849C59.0811 293.162 55.268 289.349 50.5811 289.349ZM320.317 272.164C324.268 270.914 328.481 273.105 329.73 277.054C330.979 281.003 328.79 285.217 324.841 286.466C319.504 288.155 313.928 289.672 308.269 290.98C307.701 291.111 307.132 291.175 306.573 291.175C303.16 291.175 300.075 288.829 299.272 285.36C298.34 281.324 300.857 277.297 304.893 276.365C310.167 275.146 315.357 273.733 320.317 272.164ZM250.593 14.993C243 14.993 235.405 16.5099 228.326 19.5428L25.0059 106.681C18.741 109.367 15 115.038 15 121.852C15.0001 128.659 18.7362 134.326 24.9951 137.006L47.9287 146.835C48.3647 146.67 48.8199 146.541 49.2959 146.458L211.504 118.248C214.247 106.682 230.129 98.3485 250.581 98.3485C273.1 98.3485 290.081 108.451 290.081 121.848C290.081 135.245 273.1 145.348 250.581 145.348C234.802 145.348 221.751 140.385 215.347 132.806L72.9678 157.568L228.358 224.165C242.481 230.217 258.693 230.212 272.837 224.15L476.158 137.014C482.423 134.329 486.164 128.657 486.164 121.842C486.164 115.035 482.428 109.368 476.17 106.686L272.806 19.5282C265.751 16.5052 258.173 14.993 250.593 14.993ZM250.581 113.349C234.505 113.349 226.081 119.664 226.081 121.849C226.082 124.034 234.506 130.349 250.581 130.349C266.656 130.349 275.08 124.035 275.081 121.849C275.081 119.664 266.657 113.349 250.581 113.349Z" fill="#020202"/>
</svg>
