<svg width="21" height="24" viewBox="0 0 21 24" fill="none" xmlns="http://www.w3.org/2000/svg">
<path d="M14.0674 0C14.8602 0 15.5723 0.314349 16.2432 0.958008C16.4413 1.14263 16.4815 1.43252 16.3545 1.66699L13.7627 6.38672C14.4488 6.88067 15.7956 7.94836 17.1475 9.54492C18.2654 10.857 19.1497 12.2592 19.79 13.7061C20.3512 14.9788 20.7182 16.2911 20.8887 17.623C20.511 16.9875 19.976 16.4565 19.3369 16.084C18.7997 14.078 17.7633 12.156 16.2275 10.3389C14.7438 8.57793 13.2402 7.47967 12.7773 7.16504H8.21289C7.75544 7.48441 6.2457 8.57759 4.76172 10.3389C2.41399 13.1229 1.21977 16.1564 1.21973 19.3545C1.21973 21.2555 2.79517 22.8026 4.73145 22.8027H14.0098C14.5393 23.3639 15.2161 23.7837 15.9785 24H4.73145C2.12431 23.9999 0 21.9141 0 19.3545C2.60915e-05 17.4286 0.406986 15.5272 1.20996 13.7061C1.85031 12.2592 2.73964 10.857 3.85254 9.54492C5.17887 7.98339 6.50021 6.92584 7.19141 6.42188L4.39648 2.27539C4.23893 2.04088 4.26956 1.72595 4.46777 1.52637C5.41802 0.568673 6.38909 0.120117 7.52734 0.120117C8.42676 0.120213 9.35704 0.389224 10.5664 0.823242C10.6577 0.858061 10.749 0.87302 10.8555 0.873047C11.2061 0.873047 11.6383 0.693396 12.0957 0.508789C12.675 0.26933 13.3408 9.41485e-05 14.0674 0ZM17.1602 16.7461C18.8606 16.7461 20.2451 18.1306 20.2451 19.8311C20.2449 21.5314 18.8605 22.915 17.1602 22.915C15.46 22.9148 14.0764 21.5312 14.0762 19.8311C14.0762 18.1307 15.4598 16.7463 17.1602 16.7461ZM17.1611 17.9277C17.0189 17.9277 16.9023 18.0443 16.9023 18.1865V19.8311C16.9024 19.91 16.9387 19.9834 16.999 20.0322L18.0273 20.8545C18.0752 20.8931 18.1321 20.912 18.1885 20.9121C18.2643 20.912 18.3393 20.8777 18.3896 20.8145L18.3906 20.8154C18.4795 20.7044 18.4611 20.5413 18.3506 20.4521L17.4189 19.7061V18.1865C17.4189 18.0446 17.3029 17.9282 17.1611 17.9277ZM17.2021 17.9844C17.2035 17.9846 17.2047 17.9851 17.2061 17.9854C17.1916 17.982 17.1765 17.9805 17.1611 17.9805L17.2021 17.9844ZM8.34668 10.7461C9.16847 10.7461 9.53022 11.2654 9.53027 12.0176V12.627H10.0635V13.2002H9.53027L9.51367 15.5645C9.51371 16.039 9.80334 16.2627 10.2549 16.2627C11.2391 16.2625 11.8261 15.3406 11.8262 14.2393C11.8262 13.8212 11.6521 13.5306 11.2832 13.4844L11.1758 12.8594C11.9435 12.8594 12.4766 13.3887 12.4766 14.2305C12.4764 15.5825 11.7176 16.8719 10.2549 16.8721C9.39693 16.8721 8.85453 16.3973 8.85449 15.5645L8.87109 13.2002H8.07617V12.627H8.87109V12.0449C8.87109 11.5792 8.71741 11.3555 8.2207 11.3555H8.07617V10.7549C8.16632 10.7459 8.26548 10.7461 8.34668 10.7461ZM14.0625 1.1875C13.5798 1.18755 13.0819 1.39196 12.5586 1.60645C12.0148 1.83098 11.4452 2.06055 10.8506 2.06055C10.6068 2.06054 10.368 2.02113 10.1445 1.94141C9.06225 1.54731 8.24891 1.30772 7.52734 1.30762C6.85148 1.30762 6.28674 1.52655 5.69727 2.02539L8.35547 5.96777H12.6045L15.0439 1.5166C14.6272 1.2272 14.2963 1.1875 14.0625 1.1875Z" fill="black"/>
</svg>
