<svg width="482" height="466" viewBox="0 0 482 466" fill="none" xmlns="http://www.w3.org/2000/svg">
<path d="M239.436 87.3408C240.189 87.3406 242.447 86.588 244.706 87.3408L452.518 147.576C455.529 149.082 457.788 152.094 457.788 155.105V450.258H481.883V465.317H0V450.258H27.8584V155.105C27.8584 151.341 30.1181 148.329 33.1299 147.576C33.8919 146.821 238.683 87.3408 239.436 87.3408ZM137.788 360.658C127.247 378.729 107.67 390.775 85.835 390.775C68.5175 390.775 52.7061 382.493 42.165 370.446V450.258H234.918V369.693C224.377 382.493 207.812 390.775 189.741 390.775C167.153 390.775 147.576 378.729 137.788 360.658ZM344.847 359.905C334.306 377.976 314.73 390.022 292.895 390.022C276.33 390.022 260.518 383.246 249.977 371.952V449.505H443.482V366.682C432.941 380.988 415.623 390.022 396.8 390.022C374.212 390.022 354.635 377.976 344.847 359.905ZM42.165 280.847H41.4121V331.293C41.4121 356.14 60.2351 375.717 85.082 375.717C109.929 375.717 129.506 355.387 129.506 331.293C129.506 326.776 132.518 323.764 137.035 323.764C141.553 323.764 144.564 326.776 144.564 331.293C144.564 356.14 164.141 375.717 188.988 375.717C213.835 375.717 233.412 355.387 233.412 331.293V231.905L42.165 280.847ZM249.977 216.847L384 250.729L380.235 265.034L249.977 231.905H248.471V341.082C253.741 360.658 271.059 374.964 291.389 374.964C316.236 374.964 335.812 354.634 335.812 330.54C335.812 326.023 338.824 323.011 343.341 323.011C347.858 323.011 350.87 326.023 350.87 330.54C350.87 355.387 370.447 374.964 395.294 374.964C420.141 374.964 439.718 354.634 439.718 330.54V279.341L408.847 271.812L412.611 257.505L439.718 264.281V225.882L249.977 170.917V216.847ZM42.165 226.635V265.034L233.412 216.847V170.917L42.165 226.635ZM42.165 160.376V210.823L233.412 155.105V104.658L42.165 160.376ZM249.977 155.105L439.718 210.07V159.623C421.647 154.352 267.295 109.929 249.977 104.658V155.105ZM459.605 118.931L455.404 133.388L379.508 111.33L383.709 96.874L459.605 118.931ZM357.397 88.5977L353.194 103.058L335.119 97.8047L339.321 83.3438L357.397 88.5977ZM55.7168 76.0469H40.6582V48.9414H55.7168V76.0469ZM37.6465 45.1758H10.541V30.1172H37.6465V45.1758ZM85.834 45.1758H58.7285V30.1172H85.834V45.1758ZM55.7168 27.1055H40.6582V0H55.7168V27.1055Z" fill="#020202"/>
</svg>
