<svg width="386" height="427" viewBox="0 0 386 427" fill="none" xmlns="http://www.w3.org/2000/svg">
<path d="M246.78 74.2412C265.212 73.8145 282.79 80.8967 296.017 93.8672C302.929 100.608 308.049 108.374 311.718 117.505C324.347 148.737 359.59 181.59 374.097 194.305C382.886 201.985 384.678 214.955 378.62 224.769C382.886 228.865 385.532 234.497 385.703 240.812V250.881C385.703 255.574 381.863 259.414 377.169 259.414C372.476 259.414 368.636 255.574 368.636 250.881V240.812C368.636 238.081 366.503 235.863 363.772 235.777C363.26 235.863 362.662 235.948 362.065 236.033C360.017 236.631 358.481 238.508 358.481 240.812V413.697C358.481 418.39 354.641 422.23 349.948 422.23C345.255 422.23 341.415 418.39 341.414 413.697V240.896C341.415 237.569 342.183 234.411 343.548 231.51C311.292 213.931 285.266 183.041 269.479 160.854C238.418 192.94 238.417 253.441 238.417 274.177C238.417 295.937 256.081 373.59 265.468 411.648C266.066 413.952 265.638 416.428 264.273 418.391C262.908 420.353 260.859 421.718 258.47 422.06L229.287 426.582C228.86 426.667 228.433 426.668 228.006 426.668C226.214 426.668 224.337 426.07 222.886 424.961C221.009 423.596 219.814 421.547 219.558 419.243C217.083 399.36 208.039 365.227 200.615 339.115L188.412 415.062C187.729 419.158 184.145 422.23 179.964 422.23H148.134C145.404 422.23 142.758 420.865 141.222 418.646C139.686 416.428 139.259 413.611 140.113 410.966C140.288 410.524 156.325 360.601 146.855 241.75C146.258 234.497 146.172 227.67 146.342 220.929C139.26 214.443 130.812 206.166 122.705 196.779C110.332 268.118 125.179 341.079 125.35 341.847C125.862 344.321 125.265 346.966 123.644 348.929C122.023 350.891 119.548 352.086 116.988 352.086H116.134L130.47 411.648C131.067 414.123 130.47 416.854 128.849 418.902C127.228 420.95 124.753 422.145 122.108 422.145H93.5209C89.8517 422.144 86.5238 419.755 85.4145 416.257L72.1879 375.724L62.2035 420.012C61.2648 423.937 57.8518 426.668 53.8412 426.668H28.2416C25.8523 426.668 23.5475 425.644 21.9262 423.852C20.3049 421.974 19.5374 419.585 19.7934 417.195L26.7905 352.086H8.78557C4.17757 352.086 0.422054 348.417 0.251388 343.809C-3.58852 223.66 37.4569 141.91 62.2035 103.852C74.5769 84.9076 99.665 78.9345 119.462 90.3691C129.532 96.0864 136.871 105.814 139.772 116.907V117.163C139.857 117.419 144.21 136.278 157.607 160.513C168.188 132.353 184.401 110.508 199.419 94.8066C211.793 81.836 228.689 74.4972 246.78 74.2412ZM43.9428 352.086L37.7133 409.601H46.9291L59.8998 352.086H43.9428ZM283.985 105.729C274.172 96.1715 260.945 90.6248 247.122 91.1367C233.554 91.3927 221.009 96.8544 211.793 106.497C187.047 132.438 158.545 176.641 163.58 240.214C170.833 332.203 163.409 383.916 158.886 404.993H172.455L189.521 299.265C190.204 295.34 193.446 292.353 197.372 292.097H197.969C201.638 292.097 204.966 294.486 206.076 298.07C207.014 301.143 228.177 369.153 234.918 408.321L246.524 406.529C239.953 379.137 221.18 298.667 221.18 274.006C221.18 250.88 221.18 182.871 259.58 146.263C255.399 139.693 252.924 135.341 252.582 134.657C250.364 130.476 251.9 125.356 255.996 123.052C260.177 120.833 265.297 122.284 267.601 126.465C267.942 127.148 304.892 193.622 355.324 218.454C356.262 218.881 357.372 219.051 358.396 218.966C358.993 218.88 359.506 218.795 360.103 218.71C361.468 218.283 362.748 217.43 363.687 216.235C365.905 213.419 365.564 209.324 362.833 206.935C343.633 190.209 309.414 157.099 295.846 123.648C293.115 116.737 289.275 110.934 284.667 106.411C284.648 106.394 283.985 105.813 283.985 105.729ZM82.3422 352.086L99.5795 405.078H111.1L98.3852 352.086H82.3422ZM110.929 105.132C98.9825 98.3052 83.8785 101.804 76.4545 113.153C53.3292 148.652 15.4416 224.001 17.0629 335.02H106.578C102.396 309.846 94.1184 242.774 108.71 178.774C100.689 166.743 94.4601 153.857 92.7533 141.143C92.156 136.535 95.3989 132.182 100.092 131.585C104.7 130.988 109.052 134.231 109.649 138.924C112.465 160.001 132.945 183.98 147.793 198.913C148.561 193.281 149.5 187.734 150.78 182.443C130.215 150.529 123.644 123.479 123.132 121.089C121.426 114.433 116.988 108.631 110.929 105.132ZM154.279 5.12109C179.623 5.12109 200.188 25.6863 200.188 51.0303C200.188 76.3743 179.623 96.9395 154.279 96.9395C128.935 96.9394 108.37 76.3742 108.37 51.0303C108.37 25.6864 128.935 5.12117 154.279 5.12109ZM330.066 0C356.775 0.000210814 378.535 21.7605 378.535 48.4697C378.534 75.1788 356.775 96.9383 330.066 96.9385C303.271 96.9385 281.596 75.1789 281.596 48.4697C281.596 21.7604 303.357 0 330.066 0ZM154.279 22.1875C138.407 22.1876 125.436 35.1584 125.436 51.0303C125.436 66.9022 138.407 79.873 154.279 79.873C170.151 79.873 183.122 66.9023 183.122 51.0303C183.121 35.1583 170.151 22.1875 154.279 22.1875ZM330.066 17.0664C312.743 17.0664 298.663 31.1471 298.663 48.4697C298.663 65.7922 312.743 79.8721 330.066 79.8721C347.388 79.8719 361.468 65.7921 361.468 48.4697C361.468 31.1472 347.388 17.0666 330.066 17.0664Z" fill="#020202"/>
</svg>
