<svg width="15" height="24" viewBox="0 0 15 24" fill="none" xmlns="http://www.w3.org/2000/svg">
<path d="M14.2918 7.55186C14.2471 7.46798 14.1804 7.39778 14.099 7.34869C14.0176 7.29961 13.9244 7.27348 13.8294 7.27307H8.4996L10.7496 0.693689V0.690409C10.775 0.610758 10.7815 0.526244 10.7684 0.443652C10.7553 0.361059 10.723 0.282689 10.6741 0.21483C10.6246 0.149215 10.5607 0.0957628 10.4874 0.0585367C10.4141 0.0213106 10.3333 0.00129102 10.251 0H4.85569C4.74724 0.000239105 4.6415 0.0339049 4.55287 0.0964112C4.46425 0.158918 4.39705 0.247225 4.36043 0.349304C4.36043 0.352584 4.35715 0.352584 4.35715 0.355864L0.0244647 13.1522V13.1555C0.00213876 13.2277 -0.00501601 13.3037 0.00345064 13.3787C0.0119173 13.4538 0.0358223 13.5263 0.0736625 13.5917C0.110261 13.6522 0.158796 13.7047 0.21631 13.7458C0.273825 13.787 0.339116 13.816 0.408207 13.8311C0.44465 13.8403 0.482138 13.8447 0.519722 13.8443H4.64578L2.85498 23.3755C2.83944 23.4577 2.84352 23.5425 2.86688 23.6228C2.89025 23.7032 2.93224 23.7769 2.98945 23.838C3.04279 23.8937 3.10778 23.937 3.17978 23.9648C3.25178 23.9926 3.32901 24.0042 3.40599 23.9987C3.48535 23.992 3.56221 23.9677 3.6309 23.9274C3.69959 23.8871 3.75835 23.8318 3.80285 23.7658L14.2623 8.09139C14.3169 8.01311 14.3486 7.92114 14.3539 7.82583C14.3591 7.73051 14.3376 7.63563 14.2918 7.55186ZM4.36043 21.0419L5.797 13.4162C5.81112 13.3403 5.80846 13.2622 5.78919 13.1874C5.76993 13.1126 5.73453 13.043 5.68549 12.9833C5.63649 12.9237 5.5749 12.8758 5.50514 12.8429C5.43538 12.81 5.35919 12.793 5.28207 12.7931H1.25113L5.22959 1.04955H9.51635L7.26638 7.63221C7.23925 7.71116 7.23134 7.79543 7.24331 7.87805C7.25529 7.96066 7.2868 8.03922 7.33523 8.10721C7.38366 8.17521 7.4476 8.23066 7.52177 8.26898C7.59593 8.3073 7.67816 8.32738 7.76163 8.32754H12.8487L4.36043 21.0419Z" fill="black"/>
</svg>
