<svg width="21" height="24" viewBox="0 0 21 24" fill="none" xmlns="http://www.w3.org/2000/svg">
<path d="M10.083 0C10.3017 5.25425e-05 10.5112 0.08582 10.668 0.238281C12.948 2.45512 15.6838 3.48728 19.2764 3.4873C19.4991 3.4873 19.7126 3.57593 19.8701 3.7334C20.0276 3.89091 20.1162 4.1044 20.1162 4.32715C20.1162 4.91933 20.1283 5.53172 20.1406 6.17969C20.2558 12.2098 20.4128 20.4689 10.3574 23.9541C10.1794 24.0157 9.98561 24.0158 9.80762 23.9541C-0.246999 20.469 -0.088777 12.2097 0.0263672 6.17969C0.0387977 5.53173 0.0498047 4.91935 0.0498047 4.32715C0.0498405 4.10446 0.138467 3.8909 0.295898 3.7334C0.453349 3.57595 0.66699 3.48741 0.889648 3.4873C4.48194 3.4873 7.21731 2.45497 9.49707 0.238281C9.65385 0.0857496 9.86427 0 10.083 0ZM10.083 1.98145C7.77978 3.98787 5.08913 5.0083 1.72461 5.15039C1.71991 5.49588 1.713 5.8483 1.70605 6.21191C1.59035 12.2737 1.45985 19.136 10.083 22.2686C18.7065 19.136 18.5765 12.2738 18.4609 6.21191C18.454 5.84848 18.4471 5.4958 18.4424 5.15039C15.0775 5.00847 12.3865 3.98794 10.083 1.98145ZM13.5684 8.83594C13.7911 8.83596 14.0046 8.92459 14.1621 9.08203C14.2401 9.16003 14.3025 9.25257 14.3447 9.35449C14.3869 9.45634 14.4082 9.56555 14.4082 9.67578C14.4082 9.78595 14.3868 9.89528 14.3447 9.99707C14.3025 10.0989 14.2401 10.1916 14.1621 10.2695L9.51367 14.918C9.43575 14.9961 9.34314 15.0584 9.24121 15.1006C9.13934 15.1427 9.03017 15.1642 8.91992 15.1641C8.80968 15.1642 8.7005 15.1427 8.59863 15.1006C8.4967 15.0584 8.4041 14.9961 8.32617 14.918L6.00195 12.5938C5.84884 12.4353 5.76377 12.2232 5.76562 12.0029C5.76751 11.7826 5.85594 11.5718 6.01172 11.416C6.16752 11.2602 6.3783 11.1718 6.59863 11.1699C6.81897 11.168 7.03102 11.2531 7.18945 11.4062L8.91992 13.1367L12.9746 9.08203C13.1321 8.92456 13.3456 8.83595 13.5684 8.83594Z" fill="black"/>
</svg>
