<svg width="20" height="24" viewBox="0 0 20 24" fill="none" xmlns="http://www.w3.org/2000/svg">
<path fill-rule="evenodd" clip-rule="evenodd" d="M8.84656 0.0152278C7.24487 0.108834 6.31119 0.38578 5.75799 0.931382C4.98425 1.6945 5.20773 2.89259 6.39955 4.37079C6.49961 4.49488 6.581 4.6034 6.58042 4.61193C6.57986 4.62048 6.23374 4.78534 5.81126 4.97829C4.05999 5.77818 2.89333 6.50099 2.01551 7.32996C0.243089 9.00372 -0.333087 10.9776 0.179755 13.619C0.556011 15.5569 1.72759 18.1554 3.48381 20.9474C3.65465 21.219 3.83959 21.5139 3.89484 21.6028C3.96193 21.7107 4.01976 21.8601 4.06907 22.053C4.19735 22.555 4.38735 22.8299 4.78139 23.0838C5.03667 23.2483 5.14978 23.3017 5.55073 23.447C6.29708 23.7176 7.30712 23.8951 8.549 23.9739C9.09543 24.0086 10.4401 24.0087 11.0126 23.9741C12.9323 23.8581 14.4035 23.4382 15.007 22.8341C15.1686 22.6723 15.2843 22.4498 15.36 22.1549C15.391 22.0339 15.4283 21.894 15.4429 21.844C15.4574 21.794 15.6212 21.5133 15.8068 21.2203C17.7122 18.2128 18.9137 15.5847 19.2878 13.6061C19.5386 12.2792 19.5143 11.0763 19.2167 10.0848C18.7378 8.48943 17.6141 7.18583 15.7405 6.05206C15.0732 5.64827 13.9936 5.09929 13.2135 4.7672C13.034 4.69077 12.8871 4.62053 12.8871 4.61109C12.8871 4.60166 12.9979 4.4553 13.1334 4.28586C13.9786 3.22837 14.3087 2.31595 14.1095 1.58725C13.8706 0.713635 12.9409 0.2152 11.2482 0.0533252C10.7375 0.00446917 9.39493 -0.0168145 8.84656 0.0152278ZM11.3038 0.831175C12.4101 0.968153 13.0282 1.22239 13.2517 1.63236C13.5174 2.11949 13.1449 3.03892 12.2755 4.0419L12.026 4.32976V4.73025C12.026 5.12302 12.0272 5.13105 12.0885 5.1483C12.1988 5.1793 13.2756 5.65479 13.7205 5.86888C14.6323 6.30772 15.4919 6.80629 16.1092 7.25436C16.6927 7.6779 17.3398 8.3076 17.6882 8.79093L17.8045 8.95236L17.6028 9.07916C17.0323 9.43775 16.0747 9.90326 15.3733 10.1628C14.4891 10.4901 13.5164 10.7372 12.4576 10.9037C8.86518 11.4686 5.04117 10.8734 2.31751 9.32567C1.72739 8.99033 1.69247 8.96887 1.69306 8.94153C1.69336 8.92713 1.7715 8.81393 1.86667 8.68997C2.4029 7.99162 3.08125 7.40514 4.03976 6.81125C4.71294 6.39416 5.23003 6.12579 6.40786 5.58221L7.4426 5.10467V4.71632V4.32799L7.21776 4.07493C6.77225 3.5735 6.3788 2.95514 6.23085 2.52388C6.13535 2.2454 6.11263 1.91591 6.17658 1.73584C6.34313 1.26672 7.05501 0.960903 8.27594 0.833929C8.84562 0.774705 8.8579 0.774315 9.94264 0.781487C10.6925 0.786425 11.047 0.799366 11.3038 0.831175ZM6.44258 1.87394C6.44258 1.88168 6.50194 1.94751 6.57453 2.02019C7.15687 2.60348 8.44878 3.095 9.54366 3.14983C10.708 3.20815 12.2151 2.69908 12.8969 2.01718C13.0429 1.87116 13.0523 1.8203 12.9165 1.91074C12.718 2.04299 12.0203 2.31317 11.5369 2.44503C10.3785 2.76101 9.36502 2.78391 8.22391 2.51985C7.65707 2.38869 7.01506 2.16099 6.65108 1.96201C6.45844 1.85668 6.44258 1.84998 6.44258 1.87394ZM7.19259 7.42754C7.10012 7.4714 7.02906 7.61402 6.99365 7.82691C6.94631 8.11131 6.99962 8.2497 7.19259 8.34328C7.27823 8.3848 7.7426 8.47204 8.15094 8.52329C9.41463 8.68192 11.2252 8.62126 12.1462 8.3894C12.3388 8.34091 12.4602 8.23925 12.4874 8.1036C12.5124 7.9792 12.4553 7.64108 12.3922 7.53975C12.3037 7.39752 12.2523 7.3916 11.8177 7.47364C10.5033 7.72171 9.01023 7.72533 7.72038 7.48357C7.5294 7.44778 7.34815 7.41312 7.31759 7.40654C7.28704 7.39999 7.23079 7.40942 7.19259 7.42754ZM1.94337 9.30028C2.57593 9.72663 3.55098 10.22 4.31755 10.5016C5.49923 10.9357 6.76956 11.2139 8.24816 11.3624C8.82456 11.4203 10.4997 11.4283 11.0954 11.376C13.7188 11.1457 16.0495 10.3757 17.7036 9.19264C17.8613 9.07983 17.8688 9.07739 17.9085 9.12541C18.0472 9.29329 18.4706 10.2992 18.4706 10.4609C18.4706 10.5148 18.4106 10.555 17.8872 10.8518C17.5176 11.0614 16.637 11.4799 16.2205 11.6438C14.7917 12.2063 13.2575 12.5509 11.4566 12.714C10.8217 12.7715 8.75373 12.78 8.15094 12.7277C5.84365 12.5273 4.10757 12.0884 2.41693 11.2782C1.99654 11.0768 1.21488 10.6535 1.0556 10.541L0.98813 10.4934L1.03844 10.3151C1.15191 9.91303 1.55225 9.06824 1.61811 9.09189C1.63706 9.0987 1.78342 9.19246 1.94337 9.30028ZM1.80392 11.2017C3.42325 12.1453 5.31689 12.7324 7.53982 12.9802C8.52561 13.09 9.58096 13.1286 10.4843 13.0877C13.5538 12.949 15.933 12.2841 18.076 10.9661C18.3821 10.7779 18.5174 10.7079 18.5311 10.7308C18.5419 10.7487 18.5716 10.9323 18.5973 11.1387C18.6338 11.4319 18.6404 11.6364 18.6276 12.0728C18.5952 13.1738 18.3792 14.1789 17.9084 15.4201L17.797 15.714L17.3265 15.9343C15.3338 16.8677 13.4041 17.3621 11.0815 17.5346C10.5249 17.5759 8.9052 17.5753 8.38706 17.5336C5.9806 17.3398 4.07921 16.8515 2.13193 15.9272L1.66853 15.7073L1.5867 15.4948C1.35002 14.8803 1.15285 14.2345 1.02988 13.671C0.815793 12.6901 0.772959 11.611 0.917323 10.8354L0.947768 10.6718L1.16072 10.8114C1.27786 10.8882 1.56731 11.0638 1.80392 11.2017ZM4.7638 13.8779C4.55899 13.9293 4.50344 14.0206 4.61649 14.12C4.83083 14.3084 5.50712 14.3988 5.76582 14.2736C6.18127 14.0726 5.32884 13.736 4.7638 13.8779ZM3.05094 14.3866C2.88738 14.4117 2.75674 14.4751 2.73471 14.54C2.67094 14.728 3.13055 14.9863 3.71212 15.0891C3.97362 15.1354 4.39491 15.1113 4.49083 15.0446C4.70364 14.8966 4.50438 14.6737 4.01198 14.5088C3.68315 14.3988 3.29367 14.3492 3.05094 14.3866ZM2.74808 16.4142C4.05104 17.0244 5.31715 17.4003 6.90092 17.6472C7.90508 17.8037 8.71523 17.867 9.72041 17.8674C12.509 17.8687 15.1072 17.2773 17.2716 16.1486C17.4907 16.0343 17.6752 15.9458 17.6817 15.9519C17.6977 15.9668 17.485 16.4555 17.2211 17.0104C16.8178 17.8582 16.1378 19.1107 15.6138 19.9709L15.4171 20.2937L15.0405 20.4048C12.4901 21.1574 9.48419 21.3456 6.77192 20.9226C5.98338 20.7996 4.96472 20.5693 4.28977 20.3613L4.03976 20.2843L3.93276 20.1091C3.21231 18.9298 2.51349 17.6192 2.00342 16.4906C1.87739 16.2118 1.77587 15.9664 1.77587 15.9406C1.77584 15.931 1.88523 15.9825 2.0189 16.0549C2.15259 16.1273 2.48071 16.289 2.74808 16.4142ZM13.4246 19.6116C13.1045 19.6616 12.8411 19.8015 12.8638 19.9094C12.869 19.9341 12.908 19.9786 12.9504 20.0083C13.013 20.0519 13.0785 20.064 13.2976 20.0719C13.871 20.0927 14.3884 19.875 14.2082 19.6887C14.1149 19.5923 13.767 19.558 13.4246 19.6116ZM4.79 20.6978C5.75696 20.9949 6.64847 21.1841 7.60927 21.2961C10.1376 21.5908 12.7178 21.3574 14.9032 20.6364C15.0984 20.572 15.261 20.5221 15.2644 20.5255C15.2678 20.5289 15.1512 20.7188 15.0054 20.9474C14.7044 21.4194 14.662 21.5094 14.5958 21.818C14.5186 22.1779 14.4079 22.3304 14.0973 22.5049C13.2043 23.0064 11.1308 23.2886 8.98879 23.2C6.93598 23.1151 5.40695 22.7342 5.0342 22.2148C4.97056 22.1261 4.92161 22 4.86214 21.7713C4.78386 21.4704 4.76366 21.4277 4.51766 21.0436C4.24729 20.6215 4.18482 20.5187 4.19874 20.5187C4.20321 20.5187 4.46927 20.5993 4.79 20.6978Z" fill="black"/>
</svg>
