<svg width="24" height="24" viewBox="0 0 24 24" fill="none" xmlns="http://www.w3.org/2000/svg">
<path d="M12.1584 0.00585933C12.9426 0.0606492 13.6333 0.520138 13.9856 1.23339L16.3059 5.9355C16.3639 6.053 16.4499 6.15435 16.5559 6.23139C16.6619 6.30839 16.7847 6.35896 16.9143 6.37788L22.1028 7.13178C22.9431 7.25388 23.6279 7.8313 23.8899 8.6386C24.1524 9.44559 23.9376 10.3156 23.3294 10.9081L19.5754 14.5673C19.4817 14.6586 19.4119 14.7719 19.3713 14.8964C19.3308 15.0209 19.3209 15.1539 19.343 15.2831L20.2297 20.451C20.3728 21.2876 20.0352 22.1174 19.3489 22.616L19.218 22.7039C18.5513 23.1208 17.7217 23.1542 17.0168 22.784L12.3762 20.3446C12.2603 20.2837 12.1311 20.2518 12.0002 20.2518C11.8693 20.2518 11.7401 20.2836 11.6242 20.3446L6.98357 22.784L6.841 22.8533C6.16885 23.1487 5.40466 23.093 4.78239 22.7039L4.65153 22.616C4.00789 22.1485 3.67164 21.3897 3.75016 20.6072L3.77067 20.451L4.65739 15.2821C4.67939 15.1532 4.66953 15.0207 4.62907 14.8964C4.59869 14.8031 4.55155 14.7166 4.4904 14.6405L4.42497 14.5682L0.670062 10.9071C0.100296 10.3518 -0.124091 9.55285 0.0665427 8.78997L0.110488 8.6386C0.35597 7.88226 0.972898 7.32724 1.74136 7.1601L1.89761 7.13178L7.08611 6.37788C7.21571 6.35896 7.33857 6.30839 7.44451 6.23139C7.55048 6.15435 7.63654 6.05298 7.69452 5.9355L10.0148 1.23339C10.3906 0.472532 11.1515 0 12.0002 0L12.1584 0.00585933ZM12.0002 1.3496C11.6652 1.3496 11.374 1.53111 11.2258 1.83104L8.90546 6.53315C8.75068 6.84677 8.52134 7.11752 8.23846 7.32318C7.95563 7.52881 7.62744 7.66326 7.28143 7.7138H7.28045L2.09194 8.4677C1.75984 8.51598 1.49781 8.73726 1.39468 9.05461L1.3937 9.05559C1.30301 9.33439 1.35544 9.62403 1.53042 9.84855L1.61245 9.94035V9.94132L5.36638 13.6005H5.36735C5.58655 13.814 5.75752 14.0716 5.86931 14.3553L5.91326 14.4794L5.95037 14.6044C6.01605 14.8576 6.03446 15.1207 6.00603 15.3807L5.98845 15.5106L5.10173 20.6785C5.04513 21.0092 5.17497 21.3268 5.44548 21.5233C5.71623 21.7199 6.05857 21.7456 6.35564 21.5897L10.9963 19.1493L11.1135 19.0916C11.3916 18.9664 11.6942 18.9013 12.0002 18.9012L12.1301 18.9051C12.4346 18.9235 12.7321 19.007 13.0031 19.1493H13.0041L17.6448 21.5897C17.9418 21.7456 18.2841 21.72 18.5549 21.5233C18.7917 21.3512 18.9208 21.0866 18.9114 20.8016L18.8987 20.6785L18.012 15.5106C17.9529 15.1659 17.979 14.812 18.0872 14.4794L18.1311 14.3553C18.2429 14.0715 18.4139 13.814 18.6331 13.6005L22.388 9.94035C22.6276 9.70661 22.7098 9.37417 22.6067 9.05657L22.6057 9.05559C22.5025 8.73746 22.2404 8.51594 21.9085 8.4677L16.72 7.7138C16.3738 7.66338 16.0449 7.52975 15.7619 7.32416C15.5143 7.14426 15.3079 6.91418 15.1565 6.64936L15.0949 6.53315L12.7746 1.83104C12.6264 1.5311 12.3352 1.34962 12.0002 1.3496Z" fill="black"/>
</svg>
