<svg width="81" height="38" viewBox="0 0 81 38" fill="none" xmlns="http://www.w3.org/2000/svg">
<path d="M14.2852 25.3828V12.7372H17.3303V25.3828H14.2852ZM14.2852 11.3192V8.06486H17.3303V11.3192H14.2852ZM20.142 25.3828V12.7372H23.0012V15.2245L22.7687 14.7828C23.0632 14.0235 23.5436 13.4501 24.2099 13.0627C24.8918 12.6597 25.6822 12.4583 26.581 12.4583C27.5108 12.4583 28.3322 12.6597 29.045 13.0627C29.7734 13.4656 30.339 14.0312 30.7419 14.7596C31.1449 15.4724 31.3463 16.3015 31.3463 17.2469V25.3828H28.3012V17.9675C28.3012 17.4096 28.1927 16.9292 27.9757 16.5262C27.7588 16.1233 27.4566 15.8134 27.0691 15.5964C26.6972 15.364 26.2556 15.2477 25.7441 15.2477C25.2482 15.2477 24.8066 15.364 24.4191 15.5964C24.0317 15.8134 23.7295 16.1233 23.5126 16.5262C23.2956 16.9292 23.1871 17.4096 23.1871 17.9675V25.3828H20.142ZM34.177 25.3828V8.06486H37.3384V17.0841L36.4783 16.7819L43.8472 8.06486H47.8222L40.9182 16.2473L41.1042 14.0157L48.0314 25.3828H44.3121L39.663 17.7583L37.3384 20.5245V25.3828H34.177ZM53.3069 25.6618C52.4235 25.6618 51.6564 25.5145 51.0056 25.2201C50.3547 24.9256 49.851 24.5072 49.4946 23.9648C49.1382 23.4069 48.9599 22.7638 48.9599 22.0354C48.9599 21.3381 49.1149 20.7182 49.4249 20.1758C49.7348 19.6179 50.2152 19.153 50.8661 18.7811C51.517 18.4091 52.3383 18.1457 53.3301 17.9907L57.4678 17.3166V19.6412L53.9112 20.2455C53.3069 20.354 52.8574 20.5477 52.563 20.8267C52.2686 21.1056 52.1213 21.4698 52.1213 21.9192C52.1213 22.3531 52.2841 22.7018 52.6095 22.9653C52.9504 23.2132 53.3689 23.3372 53.8648 23.3372C54.5001 23.3372 55.058 23.2055 55.5384 22.942C56.0343 22.6631 56.414 22.2834 56.6775 21.803C56.9564 21.3226 57.0959 20.7957 57.0959 20.2223V16.9679C57.0959 16.4255 56.8789 15.9761 56.445 15.6197C56.0266 15.2477 55.4687 15.0618 54.7713 15.0618C54.1205 15.0618 53.5393 15.24 53.0279 15.5964C52.532 15.9374 52.1678 16.3945 51.9354 16.9679L49.4481 15.7591C49.6961 15.0928 50.0835 14.5194 50.6104 14.039C51.1528 13.5431 51.7882 13.1556 52.5165 12.8767C53.2449 12.5977 54.0352 12.4583 54.8876 12.4583C55.9259 12.4583 56.8402 12.652 57.6305 13.0394C58.4209 13.4113 59.033 13.9382 59.4669 14.6201C59.9164 15.2865 60.1411 16.0691 60.1411 16.9679V25.3828H57.2586V23.221L57.9095 23.1745C57.5841 23.7169 57.1966 24.174 56.7472 24.546C56.2978 24.9024 55.7864 25.1814 55.213 25.3828C54.6396 25.5688 54.0042 25.6618 53.3069 25.6618ZM62.9556 25.3828V12.7372H65.8148V15.5499L65.5823 15.1315C65.8768 14.1862 66.334 13.5276 66.9538 13.1556C67.5892 12.7837 68.3486 12.5977 69.2319 12.5977H69.9758V15.2942H68.8832C68.0154 15.2942 67.318 15.5654 66.7911 16.1078C66.2642 16.6347 66.0008 17.3786 66.0008 18.3394V25.3828H62.9556ZM77.7554 25.5223C76.3297 25.5223 75.2216 25.1349 74.4313 24.36C73.6564 23.5697 73.269 22.4616 73.269 21.0359V15.457H71.0839V12.7372H71.3164C71.9363 12.7372 72.4167 12.5745 72.7576 12.2491C73.0985 11.9236 73.269 11.451 73.269 10.8311V9.85477H76.3142V12.7372H79.2199V15.457H76.3142V20.8732C76.3142 21.2916 76.3839 21.648 76.5234 21.9425C76.6784 22.2369 76.9108 22.4616 77.2208 22.6166C77.5462 22.7716 77.9569 22.849 78.4528 22.849C78.5612 22.849 78.6852 22.8413 78.8247 22.8258C78.9797 22.8103 79.1269 22.7948 79.2664 22.7793V25.3828C79.0494 25.4138 78.8015 25.4448 78.5225 25.4758C78.2436 25.5068 77.9879 25.5223 77.7554 25.5223Z" fill="#214D9F"/>
<path d="M14.2852 25.3828V12.7372H17.3303V25.3828H14.2852ZM14.2852 11.3192V8.06486H17.3303V11.3192H14.2852ZM20.142 25.3828V12.7372H23.0012V15.2245L22.7687 14.7828C23.0632 14.0235 23.5436 13.4501 24.2099 13.0627C24.8918 12.6597 25.6822 12.4583 26.581 12.4583C27.5108 12.4583 28.3322 12.6597 29.045 13.0627C29.7734 13.4656 30.339 14.0312 30.7419 14.7596C31.1449 15.4724 31.3463 16.3015 31.3463 17.2469V25.3828H28.3012V17.9675C28.3012 17.4096 28.1927 16.9292 27.9757 16.5262C27.7588 16.1233 27.4566 15.8134 27.0691 15.5964C26.6972 15.364 26.2556 15.2477 25.7441 15.2477C25.2482 15.2477 24.8066 15.364 24.4191 15.5964C24.0317 15.8134 23.7295 16.1233 23.5126 16.5262C23.2956 16.9292 23.1871 17.4096 23.1871 17.9675V25.3828H20.142ZM34.177 25.3828V8.06486H37.3384V17.0841L36.4783 16.7819L43.8472 8.06486H47.8222L40.9182 16.2473L41.1042 14.0157L48.0314 25.3828H44.3121L39.663 17.7583L37.3384 20.5245V25.3828H34.177ZM53.3069 25.6618C52.4235 25.6618 51.6564 25.5145 51.0056 25.2201C50.3547 24.9256 49.851 24.5072 49.4946 23.9648C49.1382 23.4069 48.9599 22.7638 48.9599 22.0354C48.9599 21.3381 49.1149 20.7182 49.4249 20.1758C49.7348 19.6179 50.2152 19.153 50.8661 18.7811C51.517 18.4091 52.3383 18.1457 53.3301 17.9907L57.4678 17.3166V19.6412L53.9112 20.2455C53.3069 20.354 52.8574 20.5477 52.563 20.8267C52.2686 21.1056 52.1213 21.4698 52.1213 21.9192C52.1213 22.3531 52.2841 22.7018 52.6095 22.9653C52.9504 23.2132 53.3689 23.3372 53.8648 23.3372C54.5001 23.3372 55.058 23.2055 55.5384 22.942C56.0343 22.6631 56.414 22.2834 56.6775 21.803C56.9564 21.3226 57.0959 20.7957 57.0959 20.2223V16.9679C57.0959 16.4255 56.8789 15.9761 56.445 15.6197C56.0266 15.2477 55.4687 15.0618 54.7713 15.0618C54.1205 15.0618 53.5393 15.24 53.0279 15.5964C52.532 15.9374 52.1678 16.3945 51.9354 16.9679L49.4481 15.7591C49.6961 15.0928 50.0835 14.5194 50.6104 14.039C51.1528 13.5431 51.7882 13.1556 52.5165 12.8767C53.2449 12.5977 54.0352 12.4583 54.8876 12.4583C55.9259 12.4583 56.8402 12.652 57.6305 13.0394C58.4209 13.4113 59.033 13.9382 59.4669 14.6201C59.9164 15.2865 60.1411 16.0691 60.1411 16.9679V25.3828H57.2586V23.221L57.9095 23.1745C57.5841 23.7169 57.1966 24.174 56.7472 24.546C56.2978 24.9024 55.7864 25.1814 55.213 25.3828C54.6396 25.5688 54.0042 25.6618 53.3069 25.6618ZM62.9556 25.3828V12.7372H65.8148V15.5499L65.5823 15.1315C65.8768 14.1862 66.334 13.5276 66.9538 13.1556C67.5892 12.7837 68.3486 12.5977 69.2319 12.5977H69.9758V15.2942H68.8832C68.0154 15.2942 67.318 15.5654 66.7911 16.1078C66.2642 16.6347 66.0008 17.3786 66.0008 18.3394V25.3828H62.9556ZM77.7554 25.5223C76.3297 25.5223 75.2216 25.1349 74.4313 24.36C73.6564 23.5697 73.269 22.4616 73.269 21.0359V15.457H71.0839V12.7372H71.3164C71.9363 12.7372 72.4167 12.5745 72.7576 12.2491C73.0985 11.9236 73.269 11.451 73.269 10.8311V9.85477H76.3142V12.7372H79.2199V15.457H76.3142V20.8732C76.3142 21.2916 76.3839 21.648 76.5234 21.9425C76.6784 22.2369 76.9108 22.4616 77.2208 22.6166C77.5462 22.7716 77.9569 22.849 78.4528 22.849C78.5612 22.849 78.6852 22.8413 78.8247 22.8258C78.9797 22.8103 79.1269 22.7948 79.2664 22.7793V25.3828C79.0494 25.4138 78.8015 25.4448 78.5225 25.4758C78.2436 25.5068 77.9879 25.5223 77.7554 25.5223Z" fill="url(#paint0_radial_17102_6095)"/>
<path d="M23.8058 34.9083C23.5301 34.9083 23.2755 34.8546 23.0419 34.7471C22.813 34.635 22.6308 34.4761 22.4953 34.2706L22.5864 34.0884V34.8242H21.7244V29.5191H22.6424V31.7687L22.5023 31.5795C22.6331 31.3739 22.8106 31.215 23.0349 31.1029C23.2591 30.9861 23.5184 30.9277 23.8128 30.9277C24.1725 30.9277 24.4972 31.0165 24.7869 31.194C25.0766 31.3716 25.3055 31.6098 25.4737 31.9088C25.6466 32.2079 25.733 32.5442 25.733 32.918C25.733 33.2871 25.6489 33.6235 25.4807 33.9272C25.3125 34.2309 25.0836 34.4715 24.7939 34.649C24.5042 34.8219 24.1749 34.9083 23.8058 34.9083ZM23.7007 34.0673C23.9109 34.0673 24.0978 34.0183 24.2613 33.9202C24.4248 33.8221 24.551 33.6866 24.6397 33.5137C24.7332 33.3408 24.7799 33.1423 24.7799 32.918C24.7799 32.6938 24.7332 32.4975 24.6397 32.3293C24.551 32.1565 24.4248 32.021 24.2613 31.9229C24.0978 31.8201 23.9109 31.7687 23.7007 31.7687C23.4998 31.7687 23.3175 31.8177 23.154 31.9159C22.9952 32.014 22.869 32.1518 22.7756 32.3293C22.6868 32.5022 22.6424 32.6984 22.6424 32.918C22.6424 33.1423 22.6868 33.3408 22.7756 33.5137C22.869 33.6866 22.9952 33.8221 23.154 33.9202C23.3175 34.0183 23.4998 34.0673 23.7007 34.0673ZM26.827 36.366C26.7242 36.366 26.6238 36.3567 26.5257 36.338C26.4276 36.324 26.3388 36.2959 26.2594 36.2539V35.49C26.3201 35.504 26.3925 35.518 26.4766 35.532C26.5654 35.5461 26.6472 35.5531 26.7219 35.5531C26.9322 35.5531 27.084 35.504 27.1774 35.4059C27.2756 35.3124 27.362 35.1863 27.4367 35.0275L27.689 34.4388L27.675 35.2097L26.0141 31.0118H27.0022L28.1656 34.1094H27.8152L28.9715 31.0118H29.9667L28.3057 35.2097C28.2076 35.4526 28.0885 35.6605 27.9483 35.8334C27.8082 36.0063 27.6446 36.1371 27.4578 36.2258C27.2756 36.3193 27.0653 36.366 26.827 36.366Z" fill="#214D9F"/>
<mask id="mask0_17102_6095" style="mask-type:luminance" maskUnits="userSpaceOnUse" x="33" y="28" width="46" height="10">
<path d="M78.8372 28.8516H33.0117V37.5436H78.8372V28.8516Z" fill="white"/>
</mask>
<g mask="url(#mask0_17102_6095)">
<path d="M78.1384 35.0526C78.139 35.5657 77.9358 36.0581 77.5736 36.4217C77.2117 36.7853 76.7199 36.9904 76.2068 36.992L35.224 37.5455C34.9697 37.5458 34.7178 37.4959 34.4827 37.3988C34.2477 37.3016 34.0341 37.1591 33.8541 36.9793C33.6742 36.7996 33.5314 36.5861 33.4341 36.3512C33.3367 36.1162 33.2865 35.8644 33.2865 35.6101L33.0117 30.789C33.0112 30.5348 33.0608 30.2829 33.1578 30.0479C33.2547 29.8128 33.3971 29.5992 33.5766 29.4193C33.7562 29.2393 33.9696 29.0965 34.2044 28.9991C34.4393 28.9017 34.691 28.8516 34.9452 28.8516L76.9017 29.201C77.4148 29.202 77.9067 29.4066 78.2691 29.7698C78.6317 30.1331 78.8352 30.6253 78.8352 31.1384L78.1384 35.0526Z" fill="#2A5DA8"/>
<path d="M44.3414 31.8116V33.9708C44.342 33.995 44.3475 34.0188 44.3576 34.0407C44.3678 34.0627 44.3823 34.0823 44.4003 34.0984C44.4376 34.1357 44.4828 34.124 44.5358 34.124H44.9539C45.0049 34.124 45.0501 34.1357 45.0874 34.0984C45.1048 34.0822 45.1185 34.0624 45.1277 34.0404C45.1368 34.0184 45.1411 33.9947 45.1404 33.9708V33.8256C45.1404 33.8256 45.1404 33.7078 45.2954 33.698H46.0001C46.0001 33.698 46.1847 33.7137 46.1847 33.8472V34.4851C46.1857 34.5301 46.1778 34.5748 46.1613 34.6166C46.1447 34.6584 46.12 34.6965 46.0885 34.7285C46.0268 34.7879 45.9444 34.821 45.8588 34.8208H43.6328C43.5466 34.8209 43.4637 34.7879 43.4012 34.7285C43.3691 34.6984 43.3438 34.6618 43.3269 34.6213C43.31 34.5807 43.3018 34.5369 43.303 34.493V31.8116C43.303 31.8116 43.2677 31.629 43.4777 31.629H44.1667C44.1907 31.6281 44.2145 31.6323 44.2367 31.6412C44.259 31.6502 44.2791 31.6637 44.2957 31.6809C44.3124 31.6981 44.3253 31.7187 44.3335 31.7412C44.3417 31.7637 44.3451 31.7877 44.3434 31.8116" fill="white"/>
<path d="M39.396 31.625H42.5368C42.5368 31.625 42.7821 31.6387 42.8096 31.8017V32.1491C42.8096 32.1491 42.7861 32.2983 42.5682 32.312H40.4953C40.4582 32.3136 40.4227 32.3276 40.3945 32.3518C40.3664 32.376 40.3473 32.409 40.3402 32.4455V32.7341C40.3478 32.7755 40.37 32.8128 40.4028 32.8391C40.4356 32.8654 40.4768 32.879 40.5188 32.8774H42.5466C42.6227 32.8895 42.692 32.9284 42.742 32.987C42.792 33.0457 42.8195 33.1203 42.8194 33.1973V34.5302C42.8123 34.6044 42.78 34.6738 42.7278 34.7271C42.6757 34.7803 42.6069 34.814 42.5328 34.8227H39.3234C39.3234 34.8227 39.1271 34.8011 39.0977 34.648V34.3064C39.1064 34.252 39.1358 34.2031 39.1796 34.1699C39.2235 34.1366 39.2785 34.1215 39.3332 34.1278H41.4218C41.4596 34.127 41.496 34.113 41.5247 34.0883C41.5533 34.0636 41.5725 34.0296 41.5788 33.9923V33.7254C41.5724 33.6864 41.553 33.6506 41.5238 33.6239C41.4946 33.5973 41.4573 33.5811 41.4179 33.5782H39.4098C39.3312 33.5702 39.2577 33.5358 39.2013 33.4805C39.1449 33.4252 39.109 33.3523 39.0996 33.2739V31.9391C39.1034 31.8599 39.1354 31.7848 39.1897 31.7272C39.2441 31.6696 39.3173 31.6333 39.396 31.625Z" fill="white"/>
<path d="M35.2007 31.6289H38.3591C38.3591 31.6289 38.6006 31.6426 38.6261 31.8056V32.153C38.6103 32.2032 38.5781 32.2465 38.5346 32.2761C38.4912 32.3056 38.439 32.3197 38.3866 32.3159H36.3059C36.2687 32.3169 36.2329 32.3305 36.2044 32.3544C36.1759 32.3782 36.1563 32.411 36.1488 32.4475V32.738C36.1563 32.779 36.1782 32.816 36.2106 32.8423C36.243 32.8686 36.2838 32.8824 36.3255 32.8813H38.3591C38.4347 32.8935 38.5033 32.9327 38.5523 32.9914C38.6013 33.0502 38.6275 33.1247 38.6261 33.2012V34.5243C38.6192 34.5976 38.5877 34.6664 38.5367 34.7195C38.4858 34.7726 38.4183 34.8069 38.3454 34.8168H35.134C35.134 34.8168 34.9377 34.7952 34.9062 34.6421V34.3084C34.9184 34.2557 34.9496 34.2094 34.9938 34.1782C35.038 34.1471 35.092 34.1333 35.1457 34.1395H37.2324C37.2698 34.1384 37.3058 34.1246 37.3343 34.1003C37.3629 34.0761 37.3823 34.0428 37.3894 34.0061V33.7273C37.3824 33.6878 37.3624 33.6518 37.3325 33.6251C37.3025 33.5984 37.2645 33.5826 37.2245 33.5801H35.2203C35.1424 33.5707 35.07 33.535 35.0151 33.479C34.9602 33.423 34.9259 33.35 34.918 33.2719V31.9626C34.9198 31.8818 34.9498 31.8041 35.0029 31.7432C35.0559 31.6822 35.1287 31.6417 35.2086 31.6289" fill="white"/>
<path d="M49.8069 33.6645H49.1533C48.9275 33.6645 48.957 33.8392 48.957 33.8392V33.9707C48.9564 33.9926 48.9508 34.0141 48.9405 34.0335C48.9303 34.0529 48.9158 34.0697 48.8981 34.0826C48.8824 34.0987 48.8634 34.1112 48.8424 34.1194C48.8214 34.1275 48.7989 34.131 48.7764 34.1297H47.8715C47.8492 34.1317 47.8268 34.1285 47.806 34.1203C47.7852 34.1121 47.7666 34.0992 47.7517 34.0826C47.7334 34.0686 47.7187 34.0504 47.7088 34.0296C47.6989 34.0088 47.6941 33.9859 47.6948 33.9628V32.5279C47.695 32.4764 47.7154 32.4271 47.7517 32.3905C47.7665 32.3734 47.7849 32.3597 47.8056 32.3505C47.8263 32.3414 47.8488 32.3369 47.8715 32.3375H48.7803C48.8981 32.3375 48.9609 32.3983 48.9609 32.5338V32.6594C48.9609 32.6594 48.9236 32.8341 49.1435 32.8223H49.7971C49.7971 32.8223 50.0091 32.8223 50.0091 32.6594V31.9606C50.0114 31.8748 49.9796 31.7915 49.9208 31.729C49.8604 31.6717 49.7802 31.6401 49.697 31.6406H46.9489C46.9088 31.6403 46.8691 31.648 46.832 31.6631C46.795 31.6783 46.7613 31.7007 46.7329 31.729C46.7029 31.7595 46.6793 31.7957 46.6635 31.8355C46.6476 31.8753 46.6399 31.9178 46.6407 31.9606V34.5301C46.6413 34.6127 46.6745 34.6917 46.7329 34.75C46.7607 34.779 46.7943 34.8019 46.8315 34.8171C46.8687 34.8323 46.9087 34.8396 46.9489 34.8383H49.697C49.7384 34.8396 49.7795 34.8324 49.818 34.8172C49.8565 34.802 49.8915 34.7791 49.9208 34.75C49.9775 34.6908 50.0091 34.6121 50.0091 34.5301V33.8941C50.0405 33.6703 49.8128 33.6645 49.8128 33.6645" fill="white"/>
<path d="M73.4875 32.3375H74.8616L74.3336 32.895L74.9774 33.5055L76.2435 32.1982C76.2881 32.1467 76.3107 32.0797 76.3063 32.0117C76.3079 31.965 76.2995 31.9185 76.282 31.8752C76.2643 31.8319 76.2378 31.7928 76.2043 31.7604C76.1707 31.7222 76.1293 31.6917 76.083 31.6711C76.0364 31.6504 75.9862 31.64 75.9353 31.6407H73.4875C73.4483 31.6334 73.4078 31.6362 73.3701 31.6489C73.3322 31.6616 73.2983 31.6838 73.2716 31.7133C73.2166 31.7937 73.1935 31.8917 73.2068 31.9881C73.1997 32.0898 73.2288 32.1907 73.2893 32.2728C73.314 32.299 73.345 32.3186 73.3792 32.3299C73.4135 32.3412 73.45 32.3438 73.4856 32.3375" fill="white"/>
<path d="M53.7665 31.729C53.7373 31.7004 53.7025 31.6778 53.6645 31.6626C53.6264 31.6475 53.5857 31.64 53.5447 31.6407H50.7966C50.7153 31.6408 50.6372 31.6724 50.5787 31.729C50.549 31.7596 50.5256 31.7959 50.5101 31.8357C50.4946 31.8755 50.4872 31.918 50.4884 31.9606V34.5302C50.4883 34.6125 50.5208 34.6915 50.5787 34.75C50.6071 34.7787 50.6411 34.8014 50.6786 34.8165C50.716 34.8317 50.7562 34.8391 50.7966 34.8383H53.5447C53.5857 34.8399 53.6268 34.8329 53.665 34.8177C53.7031 34.8025 53.7379 34.7794 53.7665 34.75C53.7966 34.7218 53.8203 34.6877 53.8364 34.6499C53.8527 34.612 53.861 34.5713 53.8608 34.5302V31.9783C53.8621 31.9352 53.8545 31.8924 53.8382 31.8525C53.8221 31.8126 53.7975 31.7765 53.7665 31.7467M52.8047 33.9609C52.8068 33.9842 52.8029 34.0077 52.7933 34.029C52.7837 34.0503 52.7686 34.0688 52.7497 34.0826C52.734 34.0986 52.715 34.1111 52.694 34.1192C52.673 34.1273 52.6506 34.1309 52.628 34.1297H51.7153C51.6927 34.1305 51.6702 34.1267 51.6491 34.1186C51.6281 34.1104 51.6089 34.0981 51.5927 34.0823C51.5766 34.0665 51.5638 34.0476 51.5552 34.0268C51.5465 34.0059 51.5422 33.9835 51.5425 33.9609V32.5279C51.5433 32.477 51.5613 32.4279 51.5935 32.3886C51.6261 32.3566 51.6697 32.3384 51.7153 32.3375H52.628C52.6736 32.3384 52.7171 32.3566 52.7497 32.3886C52.7682 32.4066 52.7827 32.4283 52.7921 32.4524C52.8017 32.4764 52.8059 32.5021 52.8047 32.5279V33.9609Z" fill="white"/>
<path d="M54.4363 32.3376C54.56 32.3376 54.6326 32.3847 54.6326 32.477V34.5303C54.6314 34.5705 54.6393 34.6105 54.6552 34.6474C54.6711 34.6844 54.6948 34.7174 54.7249 34.7442C54.7525 34.7712 54.7855 34.7922 54.8216 34.8061C54.8578 34.8199 54.8962 34.8263 54.9349 34.8247H55.3746C55.4148 34.8265 55.4549 34.8203 55.4926 34.8064C55.5303 34.7926 55.565 34.7715 55.5945 34.7442C55.6239 34.7171 55.6473 34.6839 55.6628 34.647C55.6783 34.6101 55.6859 34.5703 55.6847 34.5303V32.528C55.6847 32.3985 55.7436 32.3317 55.8614 32.3317H56.4503C56.574 32.3317 56.6309 32.3926 56.6309 32.528V34.5303C56.6305 34.5699 56.638 34.6091 56.6527 34.6459C56.6676 34.6826 56.6894 34.716 56.7173 34.7442C56.7773 34.7972 56.8551 34.8259 56.9352 34.8247H57.3709C57.4514 34.8275 57.5295 34.7986 57.5888 34.7442C57.6185 34.7172 57.6422 34.6841 57.6581 34.6472C57.674 34.6103 57.6819 34.5704 57.6811 34.5303V32.477C57.683 32.4562 57.6891 32.436 57.6991 32.4177C57.709 32.3993 57.7225 32.3831 57.7388 32.3701C57.7551 32.3571 57.7739 32.3475 57.794 32.3419C57.8142 32.3363 57.8352 32.3349 57.8558 32.3376H58.4349C58.461 32.3338 58.4877 32.3364 58.5124 32.3452C58.5373 32.3539 58.5597 32.3686 58.5776 32.3879C58.5956 32.4072 58.6086 32.4306 58.6155 32.456C58.6225 32.4814 58.6231 32.5082 58.6174 32.5339V34.5303C58.616 34.5702 58.6231 34.6099 58.6384 34.6468C58.6535 34.6837 58.6765 34.717 58.7058 34.7442C58.7682 34.7998 58.85 34.8286 58.9335 34.8247H59.3692C59.4071 34.8248 59.4448 34.8171 59.4798 34.8021C59.5145 34.7871 59.5461 34.7651 59.572 34.7376C59.5981 34.71 59.6183 34.6774 59.6315 34.6418C59.6444 34.6061 59.6501 34.5681 59.648 34.5303V31.9607C59.6501 31.9179 59.6431 31.8752 59.6276 31.8353C59.6121 31.7954 59.5881 31.7592 59.5577 31.7291C59.5294 31.7002 59.4955 31.6774 59.458 31.6622C59.4205 31.647 59.3802 31.6397 59.3398 31.6408H57.4475C57.4108 31.6412 57.3747 31.6489 57.3409 31.6634C57.3073 31.6779 57.2767 31.6989 57.2512 31.7252C57.2216 31.7493 57.1968 31.779 57.1786 31.8127C57.1605 31.8464 57.1491 31.8834 57.1452 31.9215C57.1385 31.8468 57.1052 31.7771 57.051 31.7252C56.999 31.6728 56.9285 31.6425 56.8547 31.6408H55.4806C55.406 31.6436 55.3349 31.673 55.2802 31.7238C55.2254 31.7746 55.1907 31.8433 55.1822 31.9175C55.1795 31.8798 55.1693 31.843 55.152 31.8092C55.1349 31.7755 55.1112 31.7456 55.0821 31.7213C55.0244 31.6665 54.9477 31.6363 54.8682 31.6368H54.452C54.4308 31.636 54.4096 31.6396 54.3896 31.6472C54.3698 31.6549 54.3517 31.6665 54.3364 31.6814C54.3213 31.6962 54.3091 31.7141 54.3011 31.7337C54.2928 31.7534 54.2889 31.7745 54.2891 31.7958V32.1413C54.2885 32.1881 54.3044 32.2335 54.3342 32.2695C54.3643 32.3055 54.4059 32.3297 54.452 32.3376" fill="white"/>
<path d="M60.2548 32.3377C60.3804 32.3377 60.4511 32.3848 60.4511 32.4771V34.5303C60.4511 34.57 60.4589 34.6094 60.474 34.6461C60.4892 34.6828 60.5113 34.7162 60.5394 34.7443C60.5985 34.7978 60.6758 34.8267 60.7553 34.8248H61.1911C61.2722 34.8277 61.3511 34.7988 61.411 34.7443C61.4404 34.7171 61.4638 34.684 61.4793 34.6471C61.495 34.6102 61.5024 34.5704 61.5013 34.5303V32.5281C61.5013 32.3985 61.5641 32.3318 61.6799 32.3318H62.2688C62.2949 32.3285 62.3212 32.3314 62.3459 32.3403C62.3705 32.3492 62.3927 32.3639 62.4105 32.3831C62.4284 32.4023 62.4413 32.4254 62.4486 32.4506C62.4557 32.4759 62.4566 32.5024 62.4513 32.5281V34.5303C62.4506 34.57 62.4578 34.6094 62.4725 34.6462C62.4875 34.683 62.5096 34.7163 62.5377 34.7443C62.5972 34.7972 62.6741 34.8259 62.7536 34.8248H63.1855C63.2656 34.8256 63.3431 34.797 63.4034 34.7443C63.4313 34.7161 63.4532 34.6826 63.468 34.6459C63.4829 34.6092 63.4903 34.5699 63.4898 34.5303V32.4771C63.4919 32.456 63.4984 32.4356 63.5086 32.4171C63.5188 32.3986 63.5327 32.3823 63.5494 32.3693C63.5661 32.3563 63.5853 32.3468 63.6058 32.3413C63.6262 32.3359 63.6476 32.3347 63.6684 32.3377H64.2435C64.2696 32.3336 64.2961 32.3361 64.3211 32.3448C64.3458 32.3536 64.368 32.3683 64.3856 32.3878C64.4035 32.4072 64.4161 32.4308 64.4224 32.4563C64.4288 32.4818 64.4286 32.5085 64.4222 32.534V34.5303C64.4224 34.5705 64.4308 34.6103 64.4471 34.6471C64.4632 34.6839 64.4869 34.717 64.5164 34.7443C64.5464 34.7716 64.5814 34.7928 64.6194 34.8066C64.6573 34.8204 64.6978 34.8266 64.7382 34.8248H65.1779C65.2552 34.8265 65.33 34.7975 65.386 34.7443C65.4146 34.7166 65.437 34.6833 65.4519 34.6465C65.4669 34.6096 65.4737 34.57 65.4723 34.5303V31.9608C65.4749 31.9181 65.4682 31.8754 65.4531 31.8355C65.4378 31.7956 65.4144 31.7593 65.384 31.7292C65.3249 31.6736 65.2472 31.6421 65.1661 31.6408H63.264C63.1902 31.6428 63.1199 31.673 63.0677 31.7252C63.0131 31.7779 62.9766 31.8467 62.9637 31.9215C62.9578 31.8471 62.925 31.7773 62.8714 31.7252C62.8439 31.6979 62.811 31.6764 62.775 31.6619C62.7389 31.6474 62.7002 31.6402 62.6614 31.6408H61.2873C61.2506 31.6407 61.2143 31.6482 61.1805 31.6627C61.1468 31.6772 61.1163 31.6985 61.091 31.7252C61.0357 31.7764 61.0013 31.8464 60.9948 31.9215C60.9923 31.8838 60.9819 31.8469 60.9648 31.8132C60.9475 31.7795 60.9238 31.7496 60.8947 31.7252C60.8374 31.6712 60.7616 31.641 60.6827 31.6408H60.2626C60.2414 31.6397 60.2202 31.6431 60.2002 31.6506C60.1804 31.6582 60.1623 31.6698 60.1472 31.6848C60.1319 31.6998 60.1201 31.7177 60.1123 31.7375C60.1044 31.7573 60.1009 31.7786 60.1017 31.7998V32.1453C60.1017 32.1453 60.1017 32.322 60.2626 32.3416" fill="white"/>
<path d="M75.9821 34.1371H74.3724L74.6217 33.8878L73.9877 33.9212V33.2734L73.0062 34.2922C72.9593 34.3469 72.9336 34.4165 72.9336 34.4885C72.9342 34.5799 72.9709 34.6674 73.0357 34.7319C73.0673 34.7662 73.1059 34.7934 73.1489 34.8117C73.1919 34.83 73.2382 34.8389 73.285 34.8379H75.9546C75.998 34.8445 76.0423 34.8421 76.0849 34.831C76.1273 34.8198 76.1672 34.8002 76.2019 34.7731C76.2322 34.7332 76.2541 34.6877 76.2667 34.6391C76.2791 34.5906 76.2818 34.5401 76.2746 34.4905V34.3727C76.2746 34.0979 75.9742 34.1391 75.9742 34.1391" fill="white"/>
<path d="M69.1467 33.7449H68.4518C68.2791 33.7449 68.3046 33.8961 68.3046 33.8961V34.0237C68.287 34.0845 68.3046 34.0747 68.2575 34.1061C68.2104 34.1375 68.1692 34.1316 68.124 34.1316H67.2152C67.1681 34.1334 67.1221 34.1164 67.0876 34.0845C67.0685 34.0707 67.0536 34.0522 67.044 34.0309C67.0344 34.0096 67.0305 33.9861 67.0326 33.9628V33.4151H69.029C69.1149 33.4122 69.197 33.3772 69.2586 33.317C69.2894 33.2889 69.314 33.2547 69.3305 33.2164C69.3472 33.1782 69.3554 33.1369 69.3548 33.0952V31.9606C69.356 31.9177 69.3479 31.875 69.3314 31.8354C69.3148 31.7958 69.29 31.7602 69.2586 31.7309C69.1956 31.6737 69.114 31.6416 69.029 31.6406H66.2906C66.2508 31.6406 66.2111 31.6486 66.1744 31.6641C66.1377 31.6796 66.1043 31.7023 66.0767 31.7309C66.0462 31.761 66.0221 31.7967 66.0056 31.8361C65.9891 31.8756 65.9805 31.9179 65.9805 31.9606V34.5301C65.9809 34.5713 65.9895 34.6121 66.006 34.6499C66.0227 34.6876 66.0466 34.7217 66.0767 34.75C66.1043 34.7787 66.1375 34.8013 66.1744 34.8165C66.2111 34.8317 66.2508 34.8391 66.2906 34.8383H69.029C69.114 34.839 69.196 34.8074 69.2586 34.75C69.2896 34.7225 69.3144 34.6886 69.3311 34.6507C69.3475 34.6127 69.3558 34.5716 69.3548 34.5301V33.8941C69.3548 33.743 69.1467 33.743 69.1467 33.743M67.0326 32.5279C67.0326 32.3983 67.0895 32.3316 67.2152 32.3316H68.124C68.2438 32.3316 68.3046 32.3924 68.3046 32.5279V32.6358C68.3046 32.7615 68.2438 32.8321 68.124 32.8321H67.2152C67.0895 32.8321 67.0326 32.7654 67.0326 32.6358V32.5279Z" fill="white"/>
<path d="M74.1172 33.7626L74.129 32.4141L75.4638 33.6841L74.1172 33.7626Z" fill="white"/>
<path d="M76.6746 30.6055C76.7692 30.6078 76.8619 30.632 76.9455 30.6761C77.0299 30.7195 77.0984 30.7882 77.1418 30.8724C77.1928 30.9542 77.2193 31.0489 77.2184 31.1453C77.2211 31.2419 77.1944 31.337 77.1418 31.4181C77.0953 31.5 77.0276 31.5678 76.9455 31.6144C76.8621 31.6596 76.7686 31.6833 76.6736 31.6833C76.5788 31.6833 76.4854 31.6596 76.4018 31.6144C76.3209 31.5667 76.2532 31.4992 76.2055 31.4181C76.1548 31.3362 76.1283 31.2416 76.1289 31.1453C76.1299 31.0492 76.1562 30.955 76.2055 30.8724C76.2498 30.7888 76.3183 30.7205 76.4018 30.6761C76.4828 30.6323 76.5729 30.6081 76.6648 30.6055M76.6648 30.6958C76.5875 30.6974 76.5117 30.7169 76.443 30.7527C76.3757 30.7943 76.3197 30.852 76.2801 30.9204C76.2402 30.9889 76.218 31.0662 76.2153 31.1453C76.2127 31.2264 76.2345 31.3065 76.2781 31.375C76.3152 31.4453 76.3727 31.5028 76.443 31.5398C76.5095 31.5811 76.5867 31.6016 76.6648 31.5987C76.7451 31.6028 76.8246 31.5823 76.8925 31.5398C76.964 31.5015 77.0236 31.4445 77.0653 31.375C77.1024 31.3042 77.1206 31.2251 77.1183 31.1453C77.1212 31.0668 77.1014 30.9891 77.0613 30.9215C77.0238 30.8481 76.9642 30.7883 76.8905 30.7507C76.8211 30.7138 76.7437 30.6942 76.6648 30.6938M76.4292 31.4456V30.8685H76.6255C76.6982 30.8685 76.7492 30.8685 76.7787 30.8685C76.8071 30.8857 76.8324 30.9076 76.8533 30.9333C76.8717 30.9568 76.8815 30.9859 76.8807 31.0157C76.8811 31.0375 76.8766 31.0591 76.8674 31.0788C76.8584 31.0985 76.8448 31.1159 76.8277 31.1296C76.8138 31.1471 76.7957 31.1611 76.7753 31.1703C76.7549 31.1795 76.7325 31.1837 76.71 31.1826C76.7298 31.1908 76.7488 31.2006 76.7669 31.212C76.7955 31.2492 76.8213 31.2886 76.8434 31.3298L76.918 31.4417H76.8022L76.7551 31.3494C76.7259 31.302 76.6923 31.2574 76.655 31.216C76.6324 31.2008 76.6057 31.1932 76.5784 31.1944H76.5353V31.4417L76.4292 31.4456ZM76.5235 31.1158H76.6393C76.678 31.1199 76.717 31.1123 76.7512 31.0942C76.7616 31.0867 76.7698 31.0766 76.7749 31.0648C76.7802 31.0531 76.7822 31.0402 76.7806 31.0275C76.7806 31.0111 76.7765 30.9949 76.7688 30.9804C76.7571 30.9655 76.7404 30.9552 76.7217 30.951C76.6923 30.9438 76.6619 30.9399 76.6314 30.9392H76.5353L76.5235 31.1158Z" fill="white"/>
<path d="M69.8583 32.3376C69.982 32.3376 70.0546 32.3847 70.0546 32.477V34.5303C70.0538 34.6099 70.084 34.6866 70.139 34.7442C70.1957 34.7984 70.2707 34.8292 70.349 34.8306H70.7907C70.8321 34.8322 70.8735 34.8253 70.9124 34.8105C70.9511 34.7956 70.9866 34.7731 71.0164 34.7442C71.0694 34.6859 71.0977 34.6091 71.095 34.5303V32.528C71.095 32.3985 71.1558 32.3317 71.2736 32.3317H71.5445C71.5904 32.3329 71.634 32.3519 71.6662 32.3847C71.6976 32.4236 71.7143 32.4722 71.7133 32.5222V32.5928C71.7084 32.613 71.7086 32.634 71.7135 32.6541C71.7184 32.6742 71.7282 32.6928 71.7418 32.7084C71.7555 32.7239 71.7728 32.736 71.792 32.7436C71.8113 32.7511 71.8321 32.754 71.8527 32.7518H72.6222C72.6222 32.7518 72.7792 32.7832 72.7674 32.5928V31.9607C72.7686 31.9182 72.7611 31.8758 72.7452 31.8363C72.7293 31.7968 72.7054 31.761 72.6752 31.7311C72.6461 31.7013 72.6114 31.6778 72.5727 31.6623C72.5342 31.6468 72.4928 31.6394 72.4514 31.6408H70.881C70.8441 31.6412 70.8078 31.649 70.774 31.6639C70.7403 31.6787 70.7098 31.7002 70.6847 31.7272C70.6551 31.7513 70.6307 31.7811 70.6129 31.8148C70.595 31.8485 70.584 31.8854 70.5807 31.9235C70.5805 31.8854 70.5716 31.8479 70.5546 31.8138C70.5375 31.7798 70.5129 31.7501 70.4825 31.7272C70.4305 31.6744 70.3602 31.6435 70.2862 31.6408H69.8583C69.8369 31.64 69.8155 31.6436 69.7955 31.6513C69.7755 31.6591 69.7572 31.6709 69.7419 31.686C69.7268 31.7011 69.7146 31.7191 69.7068 31.739C69.6987 31.759 69.6948 31.7803 69.6954 31.8017V32.1453C69.6954 32.1453 69.6954 32.3278 69.8583 32.3416V32.3376Z" fill="white"/>
</g>
<path d="M0 7.62206L16.5961 0V5.22656L0 12.8486V7.62206Z" fill="#7D59E2"/>
<path d="M0 15.1535L11.421 10.1758V15.3699L0 20.3476V15.1535Z" fill="#1583DF"/>
<path d="M0 22.6056L6.06741 19.9883V25.2229L0 27.8402V22.6056Z" fill="#13B156"/>
<defs>
<radialGradient id="paint0_radial_17102_6095" cx="0" cy="0" r="1" gradientTransform="matrix(53.1304 44.2677 -103.8 119.864 19.6498 -8.5966)" gradientUnits="userSpaceOnUse">
<stop stop-color="#8C68E5"/>
<stop offset="0.610577" stop-color="#2251A3"/>
<stop offset="1" stop-color="#2A439B"/>
</radialGradient>
</defs>
</svg>
