<svg width="24" height="24" viewBox="0 0 24 24" fill="none" xmlns="http://www.w3.org/2000/svg">
<path d="M23.9707 4.79492V6.99219H21.6514V8.53711H20.8721V18.5908H21.6465V20.1357H22.8086V21.6807H23.9707V24H0V21.6807H1.16211V20.1357H2.31934V18.5908H3.09375V8.53711H2.31934V6.99219H0V4.79492L11.9854 0L23.9707 4.79492ZM0.774414 22.4551V23.2295H23.1963V22.4551H0.774414ZM1.93164 20.9053V21.6807H22.0391V20.9053H1.93164ZM3.09375 19.3604V20.1357H6.95898V19.3604H3.09375ZM10.0527 19.3604V20.1357H13.918V19.3604H10.0527ZM14.6924 6.99219V8.53711H13.918V18.5908H14.6924V20.1357H16.2373V18.5908H17.0117V8.53711H16.2373V6.99219H14.6924ZM17.0117 19.3604V20.1357H20.877V19.3604H17.0117ZM7.7334 6.9873V8.53711H6.95898V18.5859H7.7334V20.1309H9.27832V18.5859H10.0527V8.53223H9.27832V6.9873H7.7334ZM3.86426 8.53711V18.5908H6.18359V8.53711H3.86426ZM10.8281 8.53711V18.5859H13.1475V8.53711H10.8281ZM17.7871 8.53711V18.5859H20.1064V8.53711H17.7871ZM3.09375 6.9873V7.76172H6.95898V6.9873H3.09375ZM10.0527 6.9873V7.76172H13.918V6.9873H10.0527ZM17.0117 6.9873V7.76172H20.877V6.9873H17.0117ZM0.774414 5.31934V6.21289H23.1963V5.31543L11.9854 0.831055L0.774414 5.31934ZM11.9854 1.96094C12.8403 1.96094 13.53 2.65959 13.5303 3.50977C13.5303 4.36016 12.8405 5.05468 11.9854 5.05469C11.1303 5.05469 10.4406 4.3561 10.4404 3.50586C10.4404 2.65547 11.1302 1.96094 11.9854 1.96094ZM11.9854 2.73535C11.5602 2.73535 11.2109 3.07594 11.2109 3.50586C11.2111 3.93562 11.5603 4.28027 11.9854 4.28027C12.4105 4.28027 12.7598 3.93968 12.7598 3.50977C12.7595 3.08007 12.4104 2.73536 11.9854 2.73535Z" fill="black"/>
</svg>
