<svg width="24" height="24" viewBox="0 0 24 24" fill="none" xmlns="http://www.w3.org/2000/svg">
<path fill-rule="evenodd" clip-rule="evenodd" d="M11.2499 0.152601C11.3993 0.0530937 11.5749 0 11.7544 0C11.9339 0 12.1094 0.0530937 12.2588 0.152601L23.1021 7.38145C23.851 7.88071 23.4974 9.04825 22.5963 9.04825H0.912405C0.0113991 9.04825 -0.342242 7.88071 0.406646 7.38145L11.2499 0.152601ZM11.7544 1.37734L2.19956 7.74809H21.3105L11.7544 1.37734ZM19.5553 18.7994C19.3829 18.7994 19.2175 18.7309 19.0956 18.609C18.9737 18.4871 18.9052 18.3217 18.9052 18.1493V10.9985C18.9052 10.8261 18.9737 10.6607 19.0956 10.5388C19.2175 10.4169 19.3829 10.3484 19.5553 10.3484C19.7277 10.3484 19.8931 10.4169 20.015 10.5388C20.1369 10.6607 20.2054 10.8261 20.2054 10.9985V18.1493C20.2054 18.3217 20.1369 18.4871 20.015 18.609C19.8931 18.7309 19.7277 18.7994 19.5553 18.7994ZM14.3547 18.7994C14.1823 18.7994 14.0169 18.7309 13.895 18.609C13.7731 18.4871 13.7046 18.3217 13.7046 18.1493V10.9985C13.7046 10.8261 13.7731 10.6607 13.895 10.5388C14.0169 10.4169 14.1823 10.3484 14.3547 10.3484C14.5271 10.3484 14.6924 10.4169 14.8144 10.5388C14.9363 10.6607 15.0048 10.8261 15.0048 10.9985V18.1493C15.0048 18.3217 14.9363 18.4871 14.8144 18.609C14.6924 18.7309 14.5271 18.7994 14.3547 18.7994ZM9.15407 18.7994C8.98166 18.7994 8.81631 18.7309 8.6944 18.609C8.57249 18.4871 8.504 18.3217 8.504 18.1493V10.9985C8.504 10.8261 8.57249 10.6607 8.6944 10.5388C8.81631 10.4169 8.98166 10.3484 9.15407 10.3484C9.32648 10.3484 9.49183 10.4169 9.61375 10.5388C9.73566 10.6607 9.80415 10.8261 9.80415 10.9985V18.1493C9.80415 18.3217 9.73566 18.4871 9.61375 18.609C9.49183 18.7309 9.32648 18.7994 9.15407 18.7994ZM3.95346 18.7994C3.78105 18.7994 3.6157 18.7309 3.49379 18.609C3.37188 18.4871 3.30339 18.3217 3.30339 18.1493V10.9985C3.30339 10.8261 3.37188 10.6607 3.49379 10.5388C3.6157 10.4169 3.78105 10.3484 3.95346 10.3484C4.12587 10.3484 4.29122 10.4169 4.41313 10.5388C4.53505 10.6607 4.60354 10.8261 4.60354 10.9985V18.1493C4.60354 18.3217 4.53505 18.4871 4.41313 18.609C4.29122 18.7309 4.12587 18.7994 3.95346 18.7994ZM0.70308 22.0498C0.70308 21.5325 0.90855 21.0365 1.27429 20.6708C1.64003 20.305 2.13608 20.0995 2.65331 20.0995H20.8554C21.3727 20.0995 21.8687 20.305 22.2345 20.6708C22.6002 21.0365 22.8057 21.5325 22.8057 22.0498C22.8057 22.567 22.6002 23.0631 22.2345 23.4288C21.8687 23.7945 21.3727 24 20.8554 24H2.65331C2.13608 24 1.64003 23.7945 1.27429 23.4288C0.90855 23.0631 0.70308 22.567 0.70308 22.0498ZM2.65331 21.3997C2.4809 21.3997 2.31555 21.4682 2.19364 21.5901C2.07172 21.712 2.00323 21.8774 2.00323 22.0498C2.00323 22.2222 2.07172 22.3875 2.19364 22.5094C2.31555 22.6314 2.4809 22.6998 2.65331 22.6998H20.8554C21.0279 22.6998 21.1932 22.6314 21.3151 22.5094C21.437 22.3875 21.5055 22.2222 21.5055 22.0498C21.5055 21.8774 21.437 21.712 21.3151 21.5901C21.1932 21.4682 21.0279 21.3997 20.8554 21.3997H2.65331Z" fill="black"/>
</svg>
