<svg width="24" height="17" viewBox="0 0 24 17" fill="none" xmlns="http://www.w3.org/2000/svg">
<path d="M22.5596 0C23.3535 0 24 0.646508 24 1.44043V14.8799C24 15.6738 23.3535 16.3203 22.5596 16.3203H1.44043C0.646508 16.3203 0 15.6738 0 14.8799V1.44043C0 0.646508 0.646508 0 1.44043 0H22.5596ZM0.959961 14.8799C0.959961 15.1439 1.17549 15.3604 1.44043 15.3604H22.5596C22.8236 15.3604 23.04 15.1439 23.04 14.8799V6.71973H0.959961V14.8799ZM9.12012 11.5195C9.385 11.5196 9.59961 11.7351 9.59961 12C9.59953 12.2648 9.38495 12.4794 9.12012 12.4795H4.32031C4.05543 12.4795 3.83993 12.2649 3.83984 12C3.83984 11.7351 4.05538 11.5195 4.32031 11.5195H9.12012ZM12.96 9.59961C13.2249 9.59961 13.4404 9.81509 13.4404 10.0801C13.4403 10.3449 13.2248 10.5596 12.96 10.5596H4.32031C4.05545 10.5596 3.83997 10.3449 3.83984 10.0801C3.83984 9.81514 4.05538 9.59961 4.32031 9.59961H12.96ZM1.44043 0.959961C1.17549 0.959961 0.959961 1.17545 0.959961 1.44043V3.83984H23.04V1.44043C23.04 1.17545 22.8236 0.959961 22.5596 0.959961H1.44043Z" fill="black"/>
</svg>
