<svg width="24" height="24" viewBox="0 0 24 24" fill="none" xmlns="http://www.w3.org/2000/svg">
<path d="M24 13.5749C23.9978 13.5324 23.9905 13.4904 23.9781 13.4496C23.9758 13.4207 23.9709 13.392 23.9635 13.364L19.962 4.36069L22.2426 4.7105C22.2688 4.71466 22.2954 4.71676 22.3219 4.71677C22.4544 4.71799 22.5824 4.66879 22.68 4.57913C22.7776 4.48947 22.8374 4.36606 22.8474 4.23392C22.8573 4.10179 22.8167 3.97081 22.7337 3.86753C22.6506 3.76426 22.5314 3.69642 22.4002 3.67776L12.5219 2.16259V0.522113C12.5219 0.38364 12.4669 0.250839 12.3689 0.152923C12.271 0.0550083 12.1382 0 11.9998 0C11.8613 0 11.7285 0.0550083 11.6306 0.152923C11.5326 0.250839 11.4776 0.38364 11.4776 0.522113V2.00283L1.75694 0.510626C1.61999 0.489717 1.48034 0.524067 1.36872 0.60612C1.2571 0.688173 1.18264 0.811208 1.16173 0.948157C1.14082 1.08511 1.17517 1.22475 1.25722 1.33638C1.33928 1.448 1.46231 1.52246 1.59926 1.54337L4.18477 1.93913L0.0360558 11.2776C0.0285726 11.3057 0.0236785 11.3343 0.0214362 11.3633C-0.00714539 11.4444 -0.00714539 11.5328 0.0214362 11.6139C0.0241887 11.6424 0.0290758 11.6707 0.0360558 11.6985C0.444479 12.5846 1.10207 13.3327 1.92853 13.8513C2.755 14.37 3.7146 14.6368 4.69017 14.6192C5.66626 14.6367 6.62633 14.3695 7.45304 13.8503C8.27975 13.331 8.9373 12.5822 9.34533 11.6953C9.35231 11.6675 9.3572 11.6393 9.35995 11.6108C9.38853 11.5297 9.38853 11.4412 9.35995 11.3601C9.35771 11.3312 9.35282 11.3025 9.34533 11.2745L5.27285 2.1062L11.4808 3.05854V21.973H6.25964C6.12117 21.973 5.98837 22.028 5.89045 22.1259C5.79254 22.2238 5.73753 22.3566 5.73753 22.4951C5.73753 22.6336 5.79254 22.7664 5.89045 22.8643C5.98837 22.9622 6.12117 23.0172 6.25964 23.0172H17.7461C17.8846 23.0172 18.0174 22.9622 18.1153 22.8643C18.2132 22.7664 18.2682 22.6336 18.2682 22.4951C18.2682 22.3566 18.2132 22.2238 18.1153 22.1259C18.0174 22.028 17.8846 21.973 17.7461 21.973H12.525V3.2183L18.7423 4.17273L14.6584 13.3619C14.6509 13.39 14.646 13.4186 14.6437 13.4475C14.6152 13.5286 14.6152 13.6171 14.6437 13.6982C14.6465 13.7267 14.6514 13.755 14.6584 13.7827C15.0806 14.6587 15.7415 15.3977 16.565 15.9149C17.3884 16.4321 18.3411 16.7064 19.3135 16.7064C20.2859 16.7064 21.2386 16.4321 22.0621 15.9149C22.8856 15.3977 23.5464 14.6587 23.9687 13.7827C23.9757 13.755 23.9805 13.7267 23.9833 13.6982C23.9938 13.6579 23.9994 13.6165 24 13.5749ZM4.69017 13.5749C4.06126 13.5841 3.43878 13.4474 2.87153 13.1756C2.30429 12.9039 1.8077 12.5044 1.4207 12.0086H7.95964C7.57264 12.5044 7.07606 12.9039 6.50881 13.1756C5.94157 13.4474 5.31909 13.5841 4.69017 13.5749ZM1.31732 10.9644L4.69017 3.37389L8.06302 10.9644H1.31732ZM19.3093 5.46235L22.6822 13.0528H15.9365L19.3093 5.46235ZM19.3093 15.6634C18.6804 15.6725 18.0579 15.5358 17.4907 15.2641C16.9235 14.9923 16.4269 14.5929 16.0399 14.0971H22.5788C22.1918 14.5929 21.6952 14.9923 21.128 15.2641C20.5607 15.5358 19.9383 15.6725 19.3093 15.6634Z" fill="black"/>
</svg>
