<svg width="341" height="408" viewBox="0 0 341 408" fill="none" xmlns="http://www.w3.org/2000/svg">
<path d="M170.101 0C171.022 0.00473914 171.927 0.211412 172.736 0.624023C173.101 0.798204 173.454 1.00807 173.792 1.25391C174.461 1.74077 174.974 2.35261 175.337 3.03613C181.602 9.97727 227.846 58.1767 333.169 68.8857C335.804 69.1247 337.721 71.2756 338.439 73.9043C338.679 76.5331 347.301 135.8 331.492 207.017C316.881 272.975 277.358 361.638 172.922 407.283C172.436 407.38 172.029 407.519 171.669 407.646C171.546 407.694 171.421 407.738 171.294 407.776C170.93 407.903 170.608 408 170.287 408C170.194 408 170.101 407.996 170.01 407.992C169.919 407.996 169.827 408 169.734 408C169.018 408 168.063 408 167.586 407.522C63.5139 361.877 24.3677 273.454 9.56836 207.495C-6.42421 136.28 2.40662 76.5346 2.64551 74.1436C2.8842 71.5148 5.27183 69.603 7.89746 69.125C111.822 58.369 157.542 11.5193 164.488 3.40137C164.854 2.5702 165.427 1.82597 166.216 1.25391C167.074 0.631674 168.058 0.23828 169.062 0.0800781C169.112 0.0718555 169.162 0.0635784 169.212 0.0566406C169.228 0.0545118 169.244 0.0527902 169.26 0.0507812C169.439 0.0273329 169.62 0.0118077 169.801 0.00488281C169.814 0.00433895 169.827 0.00436787 169.84 0.00390625C169.893 0.00223761 169.945 0.000278759 169.998 0H170.101ZM170.069 14.8105C155.97 29.262 109.223 69.1383 13.8652 79.8789C12.1943 94.6957 8.13627 146.555 21.2646 204.866C41.6792 296.365 91.8386 360.919 170.803 395.711C249.37 360.302 299.406 296.228 319.756 204.866C332.691 146.555 328.857 95.174 327.181 80.1182C231.486 69.1783 184.41 29.2664 170.069 14.8105ZM170.503 52.0156C171.922 51.9148 173.411 52.3359 174.68 53.2549C175.871 54.1178 176.62 55.3219 176.888 56.6465C185.616 65.4728 220.066 95.6123 290.679 102.756C293.317 102.995 295.236 104.909 295.955 107.539C296.435 109.695 302.669 153.695 290.679 206.78C274.611 277.086 234.083 328.739 172.692 355.761C172.214 355.88 171.795 355.939 171.406 355.969C171.218 355.987 171.029 356 170.84 356C170.75 356 170.655 355.999 170.559 355.998C170.47 355.998 170.383 356 170.295 356C170.105 356 169.918 355.989 169.734 355.975C169.283 355.947 168.827 355.889 168.439 355.761C168.364 355.728 168.29 355.694 168.215 355.661C167.94 355.565 167.677 355.448 167.426 355.312C106.31 328.17 65.8696 276.7 50.3545 206.78C38.3545 153.695 44.5934 109.695 44.834 107.539C45.314 104.909 47.4744 102.995 50.3545 102.756C120.791 95.6361 155.101 65.6731 164.075 56.7354C164.295 55.3757 165.001 54.1371 166.218 53.2549C167.485 52.3361 169.028 51.9151 170.503 52.0156ZM170.492 67.1494C158.242 78.9591 123.364 106.051 56.3545 113.995C53.4955 141.293 45.6709 287.114 170.681 343.755C295.592 286.88 287.302 140.82 284.684 113.995C217.361 106.03 182.766 78.9653 170.492 67.1494ZM180.042 191.996H214.35V208.989H180.042V245.985H161.974V208.989H127.666V191.996H161.974V155H180.042V191.996Z" fill="#020202"/>
</svg>
