<svg width="341" height="408" viewBox="0 0 341 408" fill="none" xmlns="http://www.w3.org/2000/svg">
<path d="M170.101 0C171.022 0.00473914 171.928 0.211412 172.736 0.624023C173.101 0.798204 173.454 1.00807 173.792 1.25391C174.461 1.74077 174.974 2.35261 175.337 3.03613C181.602 9.97727 227.846 58.1767 333.169 68.8857C335.804 69.1247 337.721 71.2756 338.44 73.9043C338.679 76.5331 347.301 135.8 331.492 207.017C316.881 272.975 277.358 361.638 172.922 407.283C172.436 407.38 172.029 407.519 171.669 407.646C171.546 407.694 171.421 407.738 171.294 407.776C170.93 407.903 170.609 408 170.287 408C170.194 408 170.102 407.996 170.01 407.992C169.919 407.996 169.827 408 169.734 408C169.018 408 168.063 408 167.586 407.522C63.514 361.877 24.3678 273.454 9.56847 207.495C-6.4241 136.28 2.40673 76.5346 2.64562 74.1436C2.88431 71.5148 5.27194 69.603 7.89757 69.125C111.822 58.369 157.543 11.5193 164.488 3.40137C164.854 2.5702 165.428 1.82597 166.216 1.25391C167.074 0.631674 168.059 0.23828 169.063 0.0800781C169.112 0.0718555 169.162 0.0635784 169.212 0.0566406C169.228 0.0545118 169.244 0.0527902 169.26 0.0507812C169.439 0.0273329 169.62 0.0118077 169.801 0.00488281C169.814 0.00433895 169.827 0.00436787 169.84 0.00390625C169.893 0.00223761 169.945 0.000278759 169.998 0H170.101ZM170.069 14.8105C155.97 29.262 109.224 69.1383 13.8653 79.8789C12.1945 94.6957 8.13639 146.555 21.2648 204.866C41.6793 296.365 91.8387 360.919 170.803 395.711C249.37 360.302 299.406 296.228 319.756 204.866C332.691 146.555 328.858 95.174 327.181 80.1182C231.486 69.1783 184.41 29.2664 170.069 14.8105ZM185.807 186.579H242.008V214.406H185.807V274.992H156.209V214.406H100.008V186.579H156.209V125.992H185.807V186.579Z" fill="#020202"/>
</svg>
