<svg width="512" height="505" viewBox="0 0 512 505" fill="none" xmlns="http://www.w3.org/2000/svg">
<path d="M117.046 0C123.937 0 129.546 5.60547 129.546 12.5V27.4961C129.546 33.6719 125.038 38.8047 119.14 39.8047V49.2578L162.765 15.5039C166.292 12.7774 170.503 11.336 174.952 11.3359C179.401 11.3359 183.612 12.7774 187.136 15.5L346.026 138.441C348.12 140.055 349.472 142.402 349.819 145.047C350.296 148.793 348.253 151.352 347.483 152.316L347.409 152.41L335.761 168.145C335.733 168.18 335.706 168.219 335.679 168.254C333.776 170.73 330.89 172.152 327.761 172.152C325.566 172.152 323.397 171.414 321.659 170.066L300.847 153.965V168.062C300.847 172.207 297.487 175.562 293.347 175.562C289.202 175.562 285.847 172.207 285.847 168.062V142.359L174.952 56.5547L64.0615 142.359V393.414C65.7724 393.215 67.5069 393.105 69.2607 393.105C85.7373 393.105 100.979 402.106 109.147 416.098C111.729 415.496 114.386 415.195 117.089 415.195C120.768 415.195 124.315 415.77 127.651 416.824C136.468 406.34 149.651 399.875 163.741 399.875C189.698 399.875 210.819 420.992 210.819 446.949C210.819 450.105 210.495 453.188 209.897 456.172H217.077C223.972 456.172 229.577 461.777 229.577 468.672V489.129H286.569V371.73C286.569 364.84 292.179 359.231 299.073 359.23H375.042C381.933 359.23 387.542 364.84 387.542 371.73V439.816C387.542 443.961 384.187 447.316 380.042 447.316C375.898 447.316 372.542 443.961 372.542 439.816V374.23H301.569V489.129H372.542V475.066C372.542 470.922 375.898 467.567 380.042 467.566C384.187 467.566 387.542 470.922 387.542 475.066V489.129H447.948V332.863L337.062 247.066L190.358 360.574C188.616 361.922 186.448 362.66 184.253 362.66C181.132 362.66 178.249 361.242 176.339 358.77L164.179 342.953C162.558 340.84 161.851 338.223 162.19 335.586C162.519 332.981 163.905 330.555 165.991 328.945L285.843 236.211V203.066C285.843 198.922 289.198 195.567 293.343 195.566C297.487 195.566 300.843 198.922 300.843 203.066V224.605L324.874 206.012C328.401 203.285 332.612 201.844 337.062 201.844C341.507 201.844 345.718 203.285 349.241 206.008L508.136 328.949C510.233 330.574 511.581 332.922 511.929 335.555C512.401 339.297 510.362 341.855 509.597 342.816L509.519 342.914L497.866 358.652C497.839 358.687 497.811 358.723 497.784 358.758C495.882 361.238 492.995 362.66 489.866 362.66C487.671 362.66 485.503 361.918 483.765 360.574L462.948 344.469V489.133H484.687C488.831 489.133 492.187 492.488 492.187 496.633C492.187 500.773 488.831 504.133 484.687 504.133H14.417C7.52258 504.133 1.91699 498.523 1.91699 491.633V468.672C1.91699 465.129 3.40145 461.934 5.78027 459.656C5.60059 458.328 5.50293 456.977 5.50293 455.602C5.50293 443.133 13.2726 432.148 24.5811 427.789C27.9873 414.543 37.1554 403.684 49.0615 397.824V153.965L28.2529 170.066C26.503 171.414 24.3388 172.152 22.1436 172.152C19.0187 172.152 16.1357 170.734 14.2295 168.258L2.06934 152.441C0.44441 150.324 -0.258772 147.707 0.0849609 145.066C0.413077 142.469 1.79989 140.039 3.89355 138.43L54.1748 99.5234V39.8047C48.2765 38.8007 43.7686 33.6718 43.7686 27.4922V12.5C43.7686 5.60555 49.378 0.000138609 56.2686 0H117.046ZM69.2607 408.109C53.8898 408.11 40.6474 419.574 38.46 434.773C38.0068 437.934 35.6006 440.461 32.4639 441.07C25.5304 442.414 20.5029 448.527 20.5029 455.602C20.5029 455.793 20.5146 455.98 20.5225 456.172H86.0029C90.1436 456.172 93.5029 459.527 93.5029 463.672C93.5029 467.816 90.1436 471.172 86.0029 471.172H16.917V489.133H214.577V471.172H122.003C117.859 471.172 114.503 467.816 114.503 463.672C114.503 459.531 117.859 456.172 122.003 456.172H136.288C136.858 454.316 137.179 452.352 137.179 450.309C137.179 439.219 128.167 430.199 117.089 430.199C114.093 430.199 111.202 430.848 108.507 432.121C106.62 433.012 104.452 433.082 102.515 432.309C100.577 431.531 99.0537 429.988 98.3037 428.043C93.6982 416.121 82.0263 408.109 69.2607 408.109ZM163.741 414.875C155.023 414.875 146.819 418.516 140.89 424.535C147.823 430.957 152.179 440.129 152.179 450.305C152.179 452.305 151.999 454.266 151.675 456.172H194.456C195.335 453.25 195.819 450.156 195.819 446.949C195.819 429.266 181.429 414.875 163.741 414.875ZM313.473 411.297C317.617 411.297 320.973 414.656 320.973 418.797V436.805C320.973 440.945 317.617 444.305 313.473 444.305C309.328 444.305 305.973 440.945 305.973 436.805V418.797C305.973 414.656 309.328 411.297 313.473 411.297ZM337.062 216.844C335.948 216.844 334.936 217.191 334.05 217.879L179.108 337.762L185.159 345.633L332.472 231.652C335.175 229.559 338.948 229.559 341.651 231.652L488.89 345.574L494.796 337.594L340.069 217.875C339.187 217.191 338.171 216.844 337.062 216.844ZM212.883 111.867C219.777 111.867 225.383 117.473 225.383 124.367V248.301C225.383 255.191 219.777 260.801 212.883 260.801H137.012C130.117 260.801 124.512 255.191 124.512 248.301V124.367C124.512 117.473 130.117 111.867 137.012 111.867H212.883ZM139.512 245.801H167.445V215.129H139.512V245.801ZM182.445 245.801H210.383V215.129H182.445V245.801ZM139.512 200.129H167.445V172.535H139.512V200.129ZM182.445 200.129H210.383V172.535H182.445V200.129ZM139.512 157.535H167.445V126.867H139.512V157.535ZM182.445 157.535H210.383V126.867H182.445V157.535ZM174.952 26.3359C173.839 26.336 172.827 26.6836 171.94 27.3672L17.0029 147.254L23.0537 155.125L170.362 41.1406C173.065 39.0508 176.839 39.0509 179.542 41.1406L326.78 155.066L332.687 147.086L177.96 27.3633C177.077 26.6837 176.065 26.3359 174.952 26.3359ZM69.1748 39.9922V87.918L104.14 60.8633V39.9922H69.1748ZM58.7686 15V24.9922H114.546V15H58.7686Z" fill="#020202"/>
</svg>
