<svg width="512" height="428" viewBox="0 0 512 428" fill="none" xmlns="http://www.w3.org/2000/svg">
<path d="M216.146 55.1338C224.978 63.6939 242.676 78.2498 255.188 86.4316C275.513 99.7216 292.799 117.517 305.535 138.154C310.309 136.207 315.204 134.497 320.207 133.043L305.446 99.8477L328.059 67.0117H395.941L418.554 99.8477L403.794 133.043C466.231 151.185 512 208.901 512 277.111C512 310.84 501.062 342.7 480.37 369.247L468.54 360.024C487.159 336.139 497 307.468 497 277.112C497 202.673 436.439 142.112 362 142.112C287.561 142.112 227 202.673 227 277.112C227 351.551 287.561 412.112 362 412.112C398.826 412.112 433.238 397.547 458.898 371.098L469.664 381.542C441.154 410.927 402.919 427.111 362 427.111C314.118 427.111 271.406 404.559 243.923 369.519C219.799 382.674 192.661 389.612 165 389.612C74.019 389.612 0 315.593 0 224.612C7.88359e-06 180.858 16.9533 139.638 47.7383 108.545L58.3984 119.099C30.4144 147.366 15.002 184.837 15.002 224.612C15.002 307.322 82.292 374.612 165.002 374.612C189.567 374.612 213.67 368.589 235.208 357.168C232.538 352.955 230.075 348.6 227.828 344.118C208.534 354.269 186.985 359.612 165.002 359.612C90.563 359.612 30.002 299.051 30.002 224.612C30.002 150.173 90.563 89.6114 165.002 89.6113C211.353 89.6113 254.288 113.417 278.975 152.249C283.128 149.479 287.426 146.913 291.855 144.56C280.366 126.415 264.983 110.757 246.98 98.9863C234.137 90.5893 216.78 76.4043 206.968 67.1123H123.034C113.223 76.4032 95.8664 90.5883 83.0234 98.9863C78.2974 102.076 73.6752 105.49 69.2852 109.133L59.707 97.5889C64.532 93.5839 69.6155 89.8316 74.8154 86.4326C87.3274 78.2496 105.026 63.6938 113.855 55.1338L130.365 22.1113H199.637L216.146 55.1338ZM278.341 190.446C301.019 168.262 330.819 156.399 362.162 157.114C394.286 157.818 424.351 170.473 446.816 192.748C469.504 215.241 481.998 245.202 481.998 277.112C481.998 343.28 428.166 397.112 361.998 397.112C329.908 397.112 299.774 384.678 277.148 362.102C254.477 339.481 241.994 309.297 241.998 277.111C242.003 244.622 255.249 213.034 278.341 190.446ZM359.584 172.087C347.098 172.087 334.933 174.373 323.545 178.759C331.716 207.388 332.028 237.66 324.368 266.752C316.677 295.962 301.418 322.166 280.085 342.961C282.468 345.917 285.018 348.764 287.743 351.483C307.538 371.234 333.908 382.112 361.998 382.112C419.895 382.112 466.998 335.009 466.998 277.112C466.998 249.233 456.08 223.054 436.256 203.399C416.53 183.843 390.1 172.73 361.834 172.11C361.084 172.094 360.332 172.087 359.584 172.087ZM165 104.611C98.832 104.611 45 158.443 45 224.612C45 290.78 98.832 344.612 165 344.612C184.899 344.612 204.389 339.687 221.769 330.346C215.464 313.793 212 295.85 212 277.111C212 230.474 233.396 188.743 266.884 161.211C245.033 126.15 206.563 104.611 165 104.611ZM309.783 185.308C305.171 187.947 300.739 190.962 296.527 194.344C306.176 237.308 293.973 282.871 264.107 315.375C266.128 320.577 268.569 325.607 271.408 330.427C289.85 311.825 303.086 288.67 309.862 262.932C316.617 237.277 316.552 210.625 309.783 185.308ZM283.552 206.717C266.379 226.084 257.002 250.798 256.998 277.113C256.997 284.26 257.702 291.293 259.074 298.133C279.31 272.332 288.21 239.097 283.552 206.717ZM322.567 101.433L335.064 129.538C343.805 127.947 352.806 127.111 362 127.111C371.194 127.111 380.195 127.947 388.936 129.538L401.433 101.433L388.058 82.0107H335.942L322.567 101.433ZM369.5 112.111H354.5V97.1113H369.5V112.111ZM132.135 52.1123H197.865L190.365 37.1113H139.636L132.135 52.1123ZM331.161 34.8555L318.171 42.3711L303.168 16.4375L316.158 8.92285L331.161 34.8555ZM421.065 16.2363L406.062 42.1689L393.072 34.6543L408.075 8.7207L421.065 16.2363ZM369.5 38.6016H354.5V0H369.5V38.6016Z" fill="#020202"/>
</svg>
