<svg width="371" height="371" viewBox="0 0 371 371" fill="none" xmlns="http://www.w3.org/2000/svg">
<path d="M292.373 0.0585938C301.22 0.058634 309.842 2.84322 317.019 8.0166C324.195 13.19 329.561 20.4908 332.356 28.8838C335.152 37.2769 335.237 46.3369 332.597 54.7803C329.956 63.2238 324.726 70.6224 317.646 75.9277C332.961 81.2119 346.248 91.1371 355.66 104.322C365.072 117.507 370.143 133.297 370.166 149.497V196.4C370.15 203.961 367.376 211.255 362.363 216.915C357.351 222.575 350.444 226.211 342.941 227.141L370.037 362.661C370.233 363.59 370.216 364.552 369.985 365.473C369.755 366.394 369.318 367.25 368.708 367.978C368.109 368.719 367.351 369.315 366.49 369.724C365.629 370.132 364.687 370.342 363.734 370.336H220.797C219.845 370.335 218.905 370.124 218.045 369.716C217.185 369.308 216.426 368.714 215.823 367.978C215.232 367.24 214.807 366.382 214.577 365.465C214.348 364.547 214.319 363.591 214.494 362.661L250.122 184.567V163.131L234.302 187.482C233.787 188.211 233.272 188.898 232.715 189.541C233.834 192.253 234.304 195.189 234.087 198.115L209.521 364.805C209.304 366.331 208.542 367.728 207.376 368.736C206.21 369.745 204.718 370.298 203.176 370.293H202.232C201.379 370.188 200.556 369.913 199.81 369.486C199.064 369.059 198.41 368.487 197.888 367.805C197.365 367.122 196.983 366.342 196.765 365.511C196.547 364.679 196.496 363.813 196.616 362.962L221.097 196.529C219.46 196.959 217.774 197.175 216.081 197.172C213.701 197.171 211.337 196.765 209.093 195.972C208.984 197.59 208.263 199.107 207.076 200.214C205.89 201.321 204.327 201.934 202.704 201.931H202.232C201.371 201.893 200.525 201.683 199.745 201.313C198.966 200.944 198.267 200.422 197.692 199.779C197.117 199.136 196.677 198.385 196.396 197.569C196.116 196.753 196.001 195.889 196.059 195.028C196.256 192.487 196.956 190.01 198.117 187.74V187.482C195.914 184.211 194.655 180.394 194.481 176.453C194.307 172.512 195.224 168.6 197.131 165.146L227.142 110.226C235.811 94.2854 250.03 82.0813 267.1 75.9277C260.02 70.6224 254.79 63.2238 252.149 54.7803C249.509 46.3369 249.593 37.2769 252.389 28.8838C255.185 20.4906 260.551 13.19 267.728 8.0166C274.904 2.84318 283.526 0.0585937 292.373 0.0585938ZM77.793 0C86.6513 3.84386e-05 95.2849 2.78909 102.47 7.9707C109.654 13.1523 115.026 20.4639 117.822 28.8691C120.619 37.2746 120.698 46.3476 118.05 54.8008C115.401 63.2538 110.159 70.659 103.066 75.9658C120.118 82.1319 134.318 94.3341 142.98 110.264L172.992 165.184C174.866 168.647 175.748 172.561 175.544 176.493C175.34 180.426 174.056 184.226 171.834 187.478V187.735C173.015 189.997 173.716 192.478 173.893 195.023C174.01 196.723 173.448 198.399 172.331 199.686C171.214 200.972 169.632 201.762 167.933 201.883H167.29C165.663 201.887 164.095 201.275 162.901 200.169C161.708 199.063 160.979 197.546 160.859 195.924C158.599 196.714 156.222 197.119 153.828 197.124C152.167 197.12 150.511 196.919 148.897 196.524V196.91L164.675 363.214C164.757 364.053 164.672 364.901 164.426 365.708C164.179 366.515 163.775 367.264 163.237 367.914C162.699 368.564 162.038 369.1 161.291 369.493C160.544 369.886 159.727 370.127 158.887 370.202H158.286C156.687 370.198 155.147 369.598 153.966 368.521C152.785 367.442 152.048 365.963 151.898 364.371L136.121 197.981C135.862 195.058 136.318 192.115 137.45 189.407C136.898 188.736 136.383 188.034 135.907 187.307L120.044 162.954V184.819L137.922 363.257C138.019 364.159 137.924 365.071 137.642 365.933C137.359 366.795 136.896 367.587 136.283 368.256C135.671 368.925 134.923 369.457 134.089 369.814C133.255 370.172 132.355 370.348 131.448 370.33H24.2656C23.3704 370.328 22.485 370.141 21.666 369.779C20.847 369.418 20.1116 368.89 19.5068 368.229C18.895 367.566 18.4334 366.778 18.1523 365.92C17.8713 365.062 17.7775 364.154 17.8779 363.257L31.5117 227.393H30.9971C26.9265 227.393 22.8955 226.591 19.1348 225.033C15.3741 223.475 11.9574 221.192 9.0791 218.313C6.20082 215.435 3.91712 212.018 2.35938 208.258C0.801645 204.497 1.94281e-05 200.466 0 196.396V149.492C0.0381777 133.301 5.11541 117.523 14.5264 104.348C23.9374 91.1724 37.2159 81.2531 52.5195 75.9658C45.4268 70.6589 40.1837 63.2539 37.5352 54.8008C34.8866 46.3476 34.9662 37.2746 37.7627 28.8691C40.5592 20.4637 45.9314 13.1523 53.1162 7.9707C60.301 2.78908 68.9346 0 77.793 0ZM292.266 84.502C281.293 84.5452 270.534 87.5366 261.113 93.1631C251.693 98.7896 243.958 106.845 238.718 116.485L208.706 171.405C207.942 172.727 207.545 174.229 207.556 175.756C207.566 177.283 207.984 178.779 208.767 180.09C209.549 181.401 210.667 182.479 212.006 183.214C213.344 183.948 214.855 184.312 216.381 184.268C217.834 184.275 219.265 183.913 220.54 183.216C221.815 182.518 222.892 181.508 223.669 180.28L249.993 139.337V131.662C249.993 129.957 250.671 128.321 251.877 127.115C253.083 125.909 254.718 125.231 256.424 125.231C258.129 125.231 259.766 125.909 260.972 127.115C262.177 128.321 262.854 129.957 262.854 131.662V185.254C262.897 185.681 262.897 186.112 262.854 186.54L254.752 227.141L228.643 357.517H355.761L329.693 227.141L321.591 186.54C321.549 186.112 321.549 185.681 321.591 185.254V149.497C321.591 147.792 322.269 146.156 323.475 144.95C324.681 143.744 326.316 143.066 328.021 143.066C329.727 143.066 331.363 143.744 332.569 144.95C333.775 146.156 334.452 147.792 334.452 149.497V184.61L340.412 214.407C344.985 214.103 349.271 212.075 352.406 208.732C355.542 205.39 357.292 200.983 357.304 196.4V149.497C357.291 132.617 350.719 116.401 338.977 104.274C327.234 92.1476 311.238 85.058 294.366 84.502H292.266ZM75.7559 84.583C58.907 85.1495 42.9354 92.2319 31.2041 104.339C19.4727 116.446 12.8973 132.634 12.8623 149.492V196.396C12.851 198.783 13.3098 201.149 14.2129 203.358C15.116 205.568 16.4451 207.579 18.125 209.274C19.805 210.97 21.8028 212.319 24.0039 213.243C26.0675 214.109 28.2724 214.586 30.5068 214.651L31.1777 214.663C31.6976 214.681 32.2134 214.765 32.7119 214.916L35.7129 184.905V149.492C35.713 147.787 36.3908 146.151 37.5967 144.945C38.8026 143.739 40.4381 143.062 42.1436 143.062C43.8491 143.062 45.4854 143.739 46.6914 144.945C47.8973 146.151 48.5751 147.787 48.5752 149.492V185.849L44.2881 226.964L31.4258 357.469H71.4688V229.922C71.4688 228.216 72.1467 226.581 73.3525 225.375C74.5586 224.169 76.1948 223.491 77.9004 223.491C79.6058 223.491 81.2413 224.169 82.4473 225.375C83.6532 226.581 84.331 228.216 84.3311 229.922V357.512H124.331L111.47 227.007L107.182 185.892V131.657C107.182 129.952 107.86 128.316 109.065 127.11C110.271 125.904 111.908 125.227 113.613 125.227C115.319 125.227 116.954 125.904 118.16 127.11C119.366 128.316 120.044 129.952 120.044 131.657V139.332L146.668 180.275C147.445 181.503 148.522 182.513 149.797 183.21C151.072 183.907 152.503 184.27 153.956 184.263L154.085 184.434C155.611 184.478 157.121 184.115 158.46 183.381C159.798 182.647 160.917 181.568 161.699 180.257C162.481 178.946 162.899 177.449 162.91 175.923C162.921 174.396 162.523 172.894 161.759 171.572L131.748 116.652C126.488 106.948 118.703 98.8441 109.217 93.1992C99.7308 87.5545 88.8959 84.5776 77.8574 84.583H75.7559ZM83.6973 13.6426C78.0188 12.5044 72.1302 13.0757 66.7764 15.2842C61.4227 17.4927 56.8437 21.2392 53.6191 26.0498C50.3947 30.8604 48.6696 36.5193 48.6611 42.3105H48.6182C48.6295 50.077 51.7164 57.5228 57.2041 63.0186C62.6919 68.5144 70.1338 71.6131 77.9004 71.6357C83.6917 71.6441 89.3558 69.935 94.1758 66.7246C98.9959 63.5141 102.755 58.946 104.979 53.5986C107.204 48.2513 107.792 42.3644 106.671 36.6826C105.549 31.0008 102.768 25.7789 98.6787 21.6777C94.5895 17.5766 89.3757 14.7807 83.6973 13.6426ZM298.019 13.5088C292.326 12.3788 286.426 12.9627 281.066 15.1875C275.706 17.4123 271.127 21.178 267.908 26.0068C264.689 30.8359 262.975 36.5118 262.983 42.3154C262.983 50.0815 266.069 57.53 271.561 63.0215C277.052 68.5127 284.5 71.5976 292.266 71.5977C298.069 71.6061 303.745 69.8919 308.574 66.6729C313.403 63.4539 317.169 58.8747 319.394 53.5146C321.618 48.1546 322.202 42.2548 321.072 36.5625C319.942 30.8702 317.148 25.6408 313.045 21.5371C308.941 17.4334 303.711 14.6389 298.019 13.5088Z" fill="#020202"/>
</svg>
