<svg width="24" height="24" viewBox="0 0 24 24" fill="none" xmlns="http://www.w3.org/2000/svg">
<path d="M23.3295 10.9079C23.9377 10.3153 24.1524 9.44564 23.8899 8.63864C23.6279 7.83131 22.9431 7.25395 22.1027 7.13184L16.9143 6.37795C16.7846 6.35905 16.6614 6.30893 16.5554 6.23189C16.4493 6.15485 16.3636 6.0532 16.3056 5.93568L13.9852 1.23375C13.6095 0.472734 12.8488 0 12 0C11.1511 0 10.3904 0.472734 10.0147 1.23375L7.69435 5.93564C7.63637 6.05312 7.55071 6.15475 7.44475 6.2318C7.33878 6.30884 7.21569 6.35898 7.08605 6.3779L1.89727 7.13179C1.0569 7.25395 0.3721 7.83131 0.11021 8.63821C-0.152431 9.44564 0.0622097 10.3154 0.670225 10.9077L4.42482 14.5679C4.51861 14.6593 4.58878 14.7721 4.62929 14.8966C4.66979 15.0211 4.67941 15.1536 4.65732 15.2827L3.77082 20.4508C3.62757 21.2876 3.96502 22.1172 4.6515 22.6158C5.33813 23.1147 6.23157 23.1793 6.98325 22.7845L11.624 20.3446C11.7399 20.2837 11.8689 20.2518 11.9998 20.2518C12.1307 20.2518 12.2597 20.2836 12.3757 20.3444L17.0167 22.7845C17.7684 23.1794 18.6619 23.1147 19.3485 22.6158C20.0349 22.1171 20.3724 21.2876 20.2292 20.4508L19.3426 15.2829C19.3205 15.1538 19.3301 15.0212 19.3707 14.8966C19.4112 14.772 19.4814 14.6592 19.5752 14.5678L23.3295 10.9079Z" fill="black"/>
</svg>
